<svg width="40" height="40" viewBox="0 0 40 40" fill="none" xmlns="http://www.w3.org/2000/svg">
<g clip-path="url(#clip0)">
<path d="M5.96797 35.3267H29.733L28.598 31.6517C28.7663 31.7983 38.3346 40 38.3346 40V4.125C38.2213 1.895 36.3013 0 33.9213 0L5.9763 0.005C3.59797 0.005 1.66797 1.90333 1.66797 4.13333V31.2C1.66797 33.5517 3.59463 35.3267 5.96797 35.3267ZM23.548 9.47167L23.493 9.49167L23.513 9.47167H23.548ZM10.8296 11.5867C13.8846 9.36333 16.7163 9.47 16.7163 9.47L16.9446 9.695C13.2063 10.5867 11.5113 12.2567 11.5113 12.2567C11.6846 12.22 19.233 7.865 28.3796 12.3667C28.3796 12.3667 26.6813 10.805 23.173 9.805L23.483 9.5C23.968 9.50167 26.5346 9.59167 29.2813 11.6C29.2813 11.6 32.3546 16.85 32.3546 23.3C32.253 23.1767 30.448 26.0767 25.803 26.1767C25.803 26.1767 25.0163 25.2867 24.4563 24.51C27.173 23.73 28.1896 22.17 28.1896 22.17C22.9013 25.5 18.2663 24.98 12.7213 22.73C12.6696 22.73 12.6463 22.7067 12.6196 22.68V22.67C12.593 22.645 12.5696 22.62 12.518 22.62H12.418C12.078 22.3967 11.8513 22.2867 11.8513 22.2867C11.8513 22.2867 12.8663 23.8467 15.4746 24.6267C14.7896 25.4083 14.1113 26.2967 14.1113 26.2967C9.46797 26.1867 7.77463 23.2867 7.77463 23.2867C7.77463 16.8267 10.8296 11.5867 10.8296 11.5867Z" fill="#6B66B0"/>
<path d="M23.8473 21.285C25.0323 21.285 25.9973 20.285 25.9973 19.0517C25.9973 17.8267 25.0373 16.8267 23.8473 16.8267V16.8317C22.6673 16.8317 21.7006 17.8283 21.6973 19.0617C21.6973 20.285 22.6623 21.285 23.8473 21.285Z" fill="#6B66B0"/>
<path d="M16.152 21.285C17.337 21.285 18.302 20.285 18.302 19.0517C18.302 17.8267 17.3436 16.8267 16.1586 16.8267L16.152 16.8317C14.967 16.8317 14.002 17.8283 14.002 19.0617C14.002 20.285 14.967 21.285 16.152 21.285Z" fill="#6B66B0"/>
</g>
<defs>
<clipPath id="clip0">
<rect width="40" height="40" fill="white"/>
</clipPath>
</defs>
</svg>
