<svg width="496" height="543" viewBox="0 0 496 543" fill="none" xmlns="http://www.w3.org/2000/svg">
<path d="M492.701 236.976L311.199 22.2323C309.534 20.2657 308.466 17.8636 308.121 15.3096C307.777 12.7555 308.17 10.1562 309.255 7.81865C310.34 5.48106 312.072 3.50272 314.244 2.11731C316.417 0.731909 318.941 -0.00282476 321.518 8.16137e-06H403.277C408.503 -0.00237288 413.667 1.13633 418.408 3.3364C423.149 5.53648 427.353 8.74492 430.726 12.7378L555.147 160.166C564.437 171.164 569.36 185.193 568.979 199.584C568.599 213.975 562.941 227.724 553.083 238.215L521.801 271.563L490.372 305L492.878 301.875C500.27 292.666 504.284 281.203 504.251 269.394C504.219 257.586 500.143 246.145 492.701 236.976Z" fill="#201E4E"/>
<path d="M500.632 161.217L319.166 376.695C317.511 378.674 316.453 381.085 316.116 383.646C315.78 386.206 316.178 388.81 317.264 391.152C318.351 393.494 320.081 395.476 322.251 396.866C324.421 398.256 326.941 398.996 329.516 399H411.255C416.486 399.005 421.654 397.86 426.397 395.648C431.14 393.435 435.342 390.207 438.708 386.191L563.175 238.279C572.448 227.237 577.36 213.166 576.979 198.733C576.599 184.3 570.953 170.509 561.111 159.974L529.766 126.576L498.332 93L500.868 96.1653C508.243 105.404 512.242 116.897 512.199 128.733C512.156 140.569 508.074 152.033 500.632 161.217Z" fill="#1F1D4A"/>
<path d="M250.645 37H162.756C159.095 37.0023 155.515 38.081 152.456 40.1032C149.397 42.1254 146.993 45.0027 145.541 48.381C144.088 51.7592 143.65 55.4907 144.28 59.1161C144.911 62.7415 146.582 66.1023 149.089 68.7848L271.636 200L342 116.511L279.418 49.4904C275.724 45.545 271.265 42.4015 266.317 40.2535C261.368 38.1054 256.035 36.9982 250.645 37Z" fill="#201E4E"/>
<path d="M379.595 241.066C389.926 228.836 395.4 213.235 394.977 197.231C394.554 181.227 388.262 165.937 377.3 154.27L342.513 117.217L307.561 80L310.348 83.5086C318.563 93.7501 323.016 106.501 322.962 119.63C322.909 132.76 318.352 145.473 310.053 155.647L3.55756 518.276C1.70547 520.463 0.517779 523.134 0.13475 525.975C-0.248278 528.815 0.189303 531.705 1.39589 534.305C2.60248 536.905 4.52772 539.105 6.94416 540.645C9.3606 542.186 12.1674 543.003 15.0331 543H106.018C111.838 543.001 117.588 541.731 122.866 539.279C128.144 536.826 132.823 533.251 136.576 528.802L379.595 241.066Z" fill="#1F1D4A"/>
</svg>
