<svg width="40" height="40" viewBox="0 0 40 40" fill="none" xmlns="http://www.w3.org/2000/svg">
<g clip-path="url(#clip0)">
<path d="M37.3169 10.4506C35.5284 7.38631 33.1025 4.96031 30.0385 3.17205C26.974 1.38369 23.6286 0.489746 19.9997 0.489746C16.3713 0.489746 13.0247 1.38397 9.96085 3.17205C6.89656 4.96021 4.47074 7.38631 2.6823 10.4506C0.89413 13.5148 0 16.8609 0 20.4889C0 24.8469 1.27147 28.7657 3.81504 32.2464C6.35833 35.7273 9.64389 38.136 13.6714 39.4727C14.1403 39.5597 14.4873 39.4985 14.713 39.2906C14.9387 39.0825 15.0515 38.8218 15.0515 38.5097C15.0515 38.4576 15.047 37.989 15.0383 37.1035C15.0294 36.2179 15.0252 35.4454 15.0252 34.7862L14.4262 34.8898C14.0443 34.9598 13.5625 34.9894 12.9809 34.981C12.3995 34.9729 11.796 34.912 11.1711 34.7987C10.546 34.6864 9.9645 34.426 9.42627 34.018C8.88831 33.6101 8.50641 33.076 8.28067 32.4168L8.02027 31.8175C7.84669 31.4186 7.57343 30.9754 7.20011 30.4896C6.82679 30.0033 6.44927 29.6737 6.06737 29.5001L5.88504 29.3696C5.76355 29.2829 5.65082 29.1783 5.54656 29.0569C5.4424 28.9355 5.36442 28.814 5.31234 28.6923C5.26016 28.5705 5.3034 28.4707 5.44249 28.3923C5.58159 28.314 5.83296 28.2759 6.19771 28.2759L6.71834 28.3537C7.06557 28.4233 7.49508 28.6312 8.00741 28.9786C8.51946 29.3257 8.94039 29.7771 9.2703 30.3323C9.6698 31.0443 10.1511 31.5868 10.7156 31.9602C11.2797 32.3335 11.8483 32.5198 12.4211 32.5198C12.9939 32.5198 13.4887 32.4764 13.9055 32.39C14.3219 32.3032 14.7125 32.1727 15.0773 31.9992C15.2335 30.8355 15.6589 29.9416 16.3531 29.3167C15.3637 29.2127 14.4741 29.0561 13.6839 28.8479C12.8942 28.6394 12.0782 28.301 11.2363 27.8318C10.394 27.3633 9.69524 26.7814 9.13987 26.0873C8.5844 25.3929 8.12853 24.4811 7.7729 23.353C7.4171 22.2243 7.23914 20.9224 7.23914 19.4468C7.23914 17.3458 7.92504 15.5579 9.29657 14.0821C8.65408 12.5025 8.71474 10.7318 9.47871 8.77005C9.98219 8.61363 10.7288 8.73101 11.7183 9.12148C12.7079 9.51213 13.4325 9.84678 13.8927 10.1242C14.353 10.4016 14.7217 10.6367 14.9996 10.8273C16.6144 10.3761 18.2809 10.1504 19.9995 10.1504C21.7181 10.1504 23.3849 10.3761 24.9999 10.8273L25.9894 10.2026C26.6661 9.78576 27.4652 9.40378 28.3848 9.05654C29.3049 8.70949 30.0085 8.6139 30.4948 8.77032C31.2758 10.7322 31.3454 12.5028 30.7027 14.0824C32.0741 15.5582 32.7603 17.3465 32.7603 19.4471C32.7603 20.9227 32.5817 22.2287 32.2265 23.366C31.8707 24.5035 31.4109 25.4143 30.8469 26.1004C30.2822 26.7864 29.579 27.3636 28.7371 27.8321C27.8951 28.3009 27.0788 28.6393 26.2891 28.8478C25.499 29.0563 24.6094 29.213 23.62 29.3172C24.5224 30.0981 24.9737 31.3308 24.9737 33.0147V38.5089C24.9737 38.8211 25.0823 39.0816 25.2995 39.2899C25.5165 39.4977 25.8592 39.5589 26.328 39.4718C30.3561 38.1353 33.6417 35.7266 36.1849 32.2456C38.7278 28.765 39.9997 24.8462 39.9997 20.4881C39.9988 16.8606 39.1042 13.5148 37.3169 10.4506Z" fill="#6B66B0"/>
</g>
<defs>
<clipPath id="clip0">
<rect width="40" height="40" fill="white"/>
</clipPath>
</defs>
</svg>
