<svg width="302" height="387" viewBox="0 0 302 387" fill="none" xmlns="http://www.w3.org/2000/svg">
<path d="M191.132 0.214845H124.111C121.32 0.216616 118.589 1.03918 116.257 2.58122C113.924 4.12327 112.091 6.31743 110.983 8.89356C109.876 11.4697 109.542 14.3152 110.022 17.0798C110.503 19.8444 111.778 22.4073 113.689 24.4528L207.14 124.513L260.796 60.8474L213.074 9.73957C210.257 6.73095 206.857 4.33386 203.083 2.69581C199.31 1.05776 195.243 0.213446 191.132 0.214845Z" fill="#1F1D4A"/>
<path d="M289.466 155.829C297.344 146.503 301.518 134.606 301.196 122.402C300.873 110.197 296.075 98.5378 287.716 89.6413L261.188 61.3857L234.536 33.0054L236.661 35.6809C242.925 43.4907 246.321 53.2138 246.28 63.226C246.239 73.2382 242.764 82.9331 236.436 90.6914L2.71287 367.219C1.30053 368.887 0.39484 370.924 0.102756 373.09C-0.189328 375.256 0.144355 377.46 1.06446 379.443C1.98456 381.425 3.45268 383.103 5.29537 384.277C7.13806 385.452 9.27842 386.075 11.4637 386.073H80.8455C85.2836 386.074 89.6684 385.105 93.6933 383.235C97.7182 381.365 101.286 378.638 104.148 375.246L289.466 155.829Z" fill="#201E4E"/>
</svg>
