<svg width="139" height="116" viewBox="0 0 139 116" fill="none" xmlns="http://www.w3.org/2000/svg">
<path d="M-2.71541 124.363L135.691 288.119C136.961 289.619 137.776 291.451 138.038 293.398C138.301 295.346 138.001 297.328 137.174 299.111C136.346 300.893 135.026 302.402 133.369 303.458C131.712 304.515 129.787 305.075 127.822 305.073L65.4762 305.073C61.4906 305.075 57.5526 304.206 53.9373 302.529C50.3219 300.851 47.1164 298.404 44.5444 295.359L-50.3349 182.936C-57.419 174.549 -61.1731 163.851 -60.8829 152.877C-60.5927 141.903 -56.2784 131.418 -48.761 123.418L-24.9063 97.9881L-0.93928 72.4904L-2.85029 74.8738C-8.48712 81.8959 -11.5481 90.6372 -11.5236 99.642C-11.499 108.647 -8.39043 117.372 -2.71541 124.363Z" fill="#201E4E"/>
<path d="M-8.76274 182.134L129.617 17.8186C130.879 16.3096 131.686 14.4708 131.943 12.5181C132.199 10.5653 131.896 8.57959 131.067 6.79393C130.239 5.00827 128.919 3.49672 127.265 2.43672C125.61 1.37671 123.688 0.812179 121.725 0.809402L59.3929 0.809396C55.4043 0.805749 51.4631 1.67835 47.8465 3.36584C44.2299 5.05331 41.0255 7.51476 38.4583 10.5773L-56.456 123.37C-63.5271 131.79 -67.2727 142.52 -66.9826 153.526C-66.6924 164.532 -62.3868 175.049 -54.8819 183.082L-30.9791 208.55L-7.00888 234.154L-8.94266 231.741C-14.5664 224.696 -17.6156 215.931 -17.5829 206.906C-17.5502 197.88 -14.4374 189.138 -8.76274 182.134Z" fill="#201E4E"/>
</svg>
