<svg width="577" height="543" viewBox="0 0 577 543" fill="none" xmlns="http://www.w3.org/2000/svg">
<path d="M84.2993 236.976L265.801 22.2323C267.466 20.2657 268.534 17.8636 268.879 15.3096C269.223 12.7555 268.83 10.1562 267.745 7.81865C266.66 5.48106 264.928 3.50272 262.756 2.11731C260.583 0.731909 258.059 -0.00282476 255.482 8.16137e-06H173.723C168.497 -0.00237288 163.333 1.13633 158.592 3.3364C153.851 5.53648 149.647 8.74492 146.274 12.7378L21.8529 160.166C12.563 171.164 7.63995 185.193 8.02051 199.584C8.40106 213.975 14.0587 227.724 23.9168 238.215L55.1989 271.563L86.6284 305L84.1224 301.875C76.7305 292.666 72.7164 281.203 72.7486 269.394C72.7808 257.586 76.8573 246.145 84.2993 236.976Z" fill="#F2F2F2"/>
<path d="M76.3679 161.217L257.834 376.695C259.489 378.674 260.547 381.085 260.884 383.646C261.22 386.206 260.822 388.81 259.736 391.152C258.649 393.494 256.919 395.476 254.749 396.866C252.579 398.256 250.059 398.996 247.484 399H165.745C160.514 399.005 155.346 397.86 150.603 395.648C145.86 393.435 141.658 390.207 138.292 386.191L13.8247 238.279C4.55188 227.237 -0.359924 213.166 0.0205383 198.733C0.401001 184.3 6.04727 170.509 15.8888 159.974L47.2341 126.576L78.6678 93L76.1319 96.1653C68.7572 105.404 64.7585 116.897 64.8014 128.733C64.8443 140.569 68.9263 152.033 76.3679 161.217Z" fill="#F4F4F2"/>
<path d="M326.355 37H414.244C417.905 37.0023 421.485 38.081 424.544 40.1032C427.603 42.1254 430.007 45.0027 431.459 48.381C432.912 51.7592 433.35 55.4907 432.72 59.1161C432.089 62.7415 430.418 66.1023 427.911 68.7848L305.364 200L235 116.511L297.582 49.4904C301.276 45.545 305.735 42.4015 310.683 40.2535C315.632 38.1054 320.965 36.9982 326.355 37Z" fill="#F2F2F2"/>
<path d="M197.405 241.066C187.074 228.836 181.6 213.235 182.023 197.231C182.446 181.227 188.738 165.937 199.7 154.27L234.487 117.217L269.439 80L266.652 83.5086C258.437 93.7501 253.984 106.501 254.038 119.63C254.091 132.76 258.648 145.473 266.947 155.647L573.442 518.276C575.295 520.463 576.482 523.134 576.865 525.975C577.248 528.815 576.811 531.705 575.604 534.305C574.398 536.905 572.472 539.105 570.056 540.645C567.639 542.186 564.833 543.003 561.967 543H470.982C465.162 543.001 459.412 541.731 454.134 539.279C448.856 536.826 444.177 533.251 440.424 528.802L197.405 241.066Z" fill="#F4F4F2"/>
</svg>
