<svg width="302" height="225" viewBox="0 0 302 225" fill="none" xmlns="http://www.w3.org/2000/svg">
<path d="M12.5342 230.244C4.65635 239.57 0.481546 251.467 0.804238 263.671C1.12696 275.875 5.92469 287.535 14.2844 296.431L40.812 324.687L67.4645 353.067L65.3393 350.392C59.0747 342.582 55.6794 332.859 55.7203 322.847C55.7613 312.835 59.236 303.14 65.5643 295.381L299.287 18.8535C300.699 17.1857 301.605 15.1485 301.897 12.9826C302.189 10.8167 301.856 8.61258 300.936 6.63025C300.015 4.64789 298.547 2.97018 296.705 1.79532C294.862 0.620452 292.722 -0.00262532 290.536 -0.000214625L221.155 -0.000220691C216.716 -0.00110609 212.332 0.96743 208.307 2.83755C204.282 4.70766 200.714 7.43429 197.852 10.8269L12.5342 230.244Z" fill="#201E4E"/>
</svg>
