<svg width="137" height="305" viewBox="0 0 137 305" fill="none" xmlns="http://www.w3.org/2000/svg">
<path d="M141.715 180.71L3.30867 16.9536C2.03863 15.4539 1.2242 13.6222 0.961543 11.6745C0.698889 9.72692 0.998951 7.74479 1.82635 5.96223C2.65374 4.17966 3.97393 2.67105 5.63096 1.61459C7.28798 0.558128 9.21268 -0.00215407 11.1778 6.22357e-06H73.5238C77.5094 -0.00180948 81.4474 0.866524 85.0627 2.54423C88.6781 4.22193 91.8836 6.66857 94.4556 9.71344L189.335 122.137C196.419 130.523 200.173 141.221 199.883 152.196C199.593 163.17 195.278 173.654 187.761 181.654L163.906 207.085L139.939 232.582L141.85 230.199C147.487 223.177 150.548 214.436 150.524 205.431C150.499 196.426 147.39 187.701 141.715 180.71Z" fill="#1F1D4A"/>
<path d="M147.763 122.938L9.38276 287.254C8.12091 288.763 7.31422 290.602 7.05742 292.555C6.80063 294.507 7.10432 296.493 7.93291 298.279C8.7615 300.064 10.0806 301.576 11.7354 302.636C13.3902 303.696 15.3121 304.261 17.2754 304.263H79.6071C83.5957 304.267 87.5369 303.394 91.1535 301.707C94.7701 300.019 97.9746 297.558 100.542 294.495L195.456 181.703C202.527 173.283 206.273 162.553 205.983 151.547C205.692 140.541 201.387 130.024 193.882 121.991L169.979 96.5223L146.009 70.9185L147.943 73.3322C153.566 80.3771 156.616 89.1416 156.583 98.1671C156.55 107.193 153.437 115.935 147.763 122.938Z" fill="#201E4E"/>
</svg>
