<svg width="40" height="40" viewBox="0 0 40 40" fill="none" xmlns="http://www.w3.org/2000/svg">
<g clip-path="url(#clip0)">
<path d="M36.8083 7.88817L40 4.83484V4.1665H28.9433L21.0633 23.7798L12.0983 4.1665H0.505V4.83484L4.23333 9.32317C4.59667 9.65484 4.78667 10.1398 4.73833 10.6282V28.2665C4.85333 28.9015 4.64667 29.5548 4.2 30.0165L0 35.1065V35.7665H11.9083V35.0982L7.70833 30.0165C7.25333 29.5532 7.03833 28.9115 7.13 28.2665V13.0098L17.5833 35.7748H18.7983L27.7867 13.0098V31.1448C27.7867 31.6232 27.7867 31.7215 27.4733 32.0348L24.24 35.1632V35.8332H39.9267V35.1648L36.81 32.1132C36.5367 31.9065 36.395 31.5598 36.4533 31.2232V8.77817C36.395 8.43984 36.535 8.09317 36.8083 7.88817Z" fill="#6B66B0"/>
</g>
<defs>
<clipPath id="clip0">
<rect width="40" height="40" fill="white"/>
</clipPath>
</defs>
</svg>
