<svg width="1500" height="1500" viewBox="0 0 1500 1500" fill="none" xmlns="http://www.w3.org/2000/svg">
<rect width="1500" height="1500" fill="#14151A"/>
<path d="M476.093 814.956V699.407C476.093 693.741 480.686 689.147 486.353 689.147H497.291V814.956H476.093Z" fill="white"/>
<path d="M528.019 814.956V689.147H550.323L601.382 780.449V689.147H611.399C617.066 689.147 621.659 693.741 621.659 699.407V814.956H599.355L548.295 723.655V814.956H528.019Z" fill="white"/>
<path d="M688.463 818.011C675.314 818.011 665.053 813.998 657.68 805.97C650.307 797.942 646.62 787.278 646.62 773.978H667.818C667.818 781.767 669.539 787.997 672.98 792.67C676.543 797.223 681.705 799.5 688.463 799.5C695.222 799.5 700.383 797.223 703.947 792.67C707.634 787.997 709.477 781.826 709.477 774.158V699.407C709.477 693.741 714.071 689.147 719.737 689.147H730.675V774.158C730.675 787.458 726.927 798.122 719.431 806.149C712.058 814.057 701.735 818.011 688.463 818.011Z" fill="white"/>
<path d="M759.464 689.147H833.934V697.4C833.934 703.066 829.34 707.659 823.674 707.659H780.662V743.245H833.934V761.757H780.662V796.444H833.934V814.956H759.464V743.245V707.659V689.147Z" fill="white"/>
<path d="M1297.53 689.147H1372V697.4C1372 703.066 1367.41 707.659 1361.74 707.659H1318.73V743.245H1372V761.757H1318.73V796.444H1372V814.956H1297.53V743.245V707.659V689.147Z" fill="white"/>
<path d="M920.6 818.007C902.211 818.007 887.653 811.896 876.926 799.675C866.199 787.454 860.836 771.578 860.836 752.048C860.836 732.517 866.199 716.641 876.926 704.42C887.653 692.199 902.211 686.088 920.6 686.088C936.034 686.088 948.731 690.401 958.692 699.028C968.652 707.535 974.508 718.618 976.26 732.278H963.855C959.022 732.278 955.001 728.826 953.073 724.394C950.905 719.413 947.798 715.271 943.751 711.969C937.84 707.056 930.178 704.6 920.764 704.6C908.177 704.6 898.325 708.913 891.211 717.54C884.205 726.047 880.703 737.55 880.703 752.048C880.703 766.545 884.205 778.108 891.211 786.735C898.325 795.242 908.177 799.495 920.764 799.495C930.178 799.495 937.84 797.039 943.751 792.127C947.798 788.824 950.905 784.682 953.073 779.701C955.001 775.269 959.022 771.817 963.855 771.817H976.26C974.508 785.477 968.652 796.62 958.692 805.247C948.731 813.754 936.034 818.007 920.6 818.007Z" fill="white"/>
<path d="M1030.99 814.956V708.558H993.575V699.407C993.575 693.741 998.169 689.147 1003.83 689.147H1089.8V708.558H1052.19V814.956H1030.99Z" fill="white"/>
<path d="M1116.7 814.956V699.407C1116.7 693.741 1121.29 689.147 1126.96 689.147H1137.9V814.956H1116.7Z" fill="white"/>
<path d="M1207.56 814.956L1164.79 689.147H1180.34C1184.81 689.147 1188.76 692.03 1190.12 696.279L1217.69 782.426L1245.27 696.279C1246.63 692.03 1250.58 689.147 1255.04 689.147H1270.6L1227.83 814.956H1207.56Z" fill="white"/>
<path d="M161.155 665.879C162.753 663.872 164.446 661.94 166.14 660.009C166.216 659.914 166.388 659.894 166.464 659.799C166.616 659.608 166.864 659.492 167.016 659.301L167.168 659.11C168.349 658.02 169.605 656.834 171.053 655.8C176.178 651.913 181.496 648.961 187.104 647.018C205.09 640.71 225.111 644.597 240.812 659.406C262.735 679.935 260.772 713.007 243.271 734.988C221.157 767.758 183.152 813.476 235.773 854.432C245.234 861.795 252.253 867.867 282.055 876.471C262.564 880.058 244.491 878.942 224.374 873.809C210.145 865.785 187.773 848.606 180.162 825.402C168.658 790.216 200.415 737.614 215.763 717.355C236.834 689.318 202.739 658.966 177.637 692.85C164.515 710.51 141.56 760.48 149.537 797.546C154.201 818.565 160.418 833.887 185.069 854.933C180.498 852.239 176.059 849.182 171.753 845.762C114.479 792.465 121.124 710.055 161.155 665.879Z" fill="url(#paint0_linear)"/>
<path d="M356.123 834.121C354.525 836.129 352.832 838.06 351.138 839.991C351.062 840.086 350.89 840.106 350.814 840.201C350.662 840.392 350.414 840.508 350.262 840.699L350.11 840.89C348.929 841.98 347.672 843.166 346.224 844.2C341.1 848.087 335.782 851.039 330.174 852.982C312.188 859.29 292.167 855.403 276.466 840.595C254.543 820.065 256.506 786.993 274.006 765.012C296.121 732.242 334.125 686.524 281.505 645.568C272.044 638.205 265.025 632.133 235.223 623.529C254.714 619.942 272.787 621.058 292.903 626.191C307.133 634.215 329.504 651.394 337.115 674.598C348.619 709.785 316.863 762.386 301.515 782.645C280.443 810.682 314.539 841.034 339.641 807.15C352.763 789.491 375.718 739.52 367.741 702.454C363.077 681.435 356.859 666.113 332.209 645.067C336.78 647.761 341.219 650.818 345.525 654.238C402.799 707.535 396.154 789.945 356.123 834.121Z" fill="url(#paint1_linear)"/>
<defs>
<linearGradient id="paint0_linear" x1="129.949" y1="750" x2="387.329" y2="750" gradientUnits="userSpaceOnUse">
<stop stop-color="#0082FA"/>
<stop offset="1" stop-color="#00F2FE"/>
</linearGradient>
<linearGradient id="paint1_linear" x1="129.949" y1="750" x2="387.329" y2="750" gradientUnits="userSpaceOnUse">
<stop stop-color="#0082FA"/>
<stop offset="1" stop-color="#00F2FE"/>
</linearGradient>
</defs>
</svg>
