<svg width="100" height="41" viewBox="0 0 100 41" fill="none" xmlns="http://www.w3.org/2000/svg">
<path d="M55.6932 12.7617V11.4966H57.5247C57.9103 11.4966 58.2276 11.4243 58.4766 11.2797C58.7337 11.127 58.9305 10.9222 59.0671 10.6651C59.2036 10.4001 59.2719 10.1028 59.2719 9.77349C59.2719 9.4361 59.2036 9.13888 59.0671 8.88183C58.9305 8.61674 58.7337 8.4119 58.4766 8.26731C58.2276 8.12272 57.9103 8.05042 57.5247 8.05042H55.6932V6.78523H57.356C58.087 6.78523 58.7016 6.90573 59.1996 7.14672C59.7057 7.37967 60.0872 7.71304 60.3443 8.14682C60.6094 8.57256 60.7419 9.08265 60.7419 9.67709V9.86988C60.7419 10.4563 60.6094 10.9664 60.3443 11.4002C60.0872 11.8339 59.7057 12.1713 59.1996 12.4123C58.7016 12.6453 58.087 12.7617 57.356 12.7617H55.6932ZM54.4883 15.6416V6.78523H55.9342V15.6416H54.4883Z" fill="white"/>
<path d="M62.5173 15.6416V9.14692H63.9271V15.6416H62.5173ZM61.5654 10.2314V9.14692H63.9271V10.2314H61.5654ZM62.9752 8.24321C62.686 8.24321 62.4691 8.1669 62.3245 8.01427C62.188 7.86165 62.1197 7.66484 62.1197 7.42385C62.1197 7.1909 62.188 6.99811 62.3245 6.84548C62.4691 6.68482 62.686 6.60449 62.9752 6.60449C63.2724 6.60449 63.4893 6.68482 63.6259 6.84548C63.7705 6.99811 63.8428 7.1909 63.8428 7.42385C63.8428 7.66484 63.7705 7.86165 63.6259 8.01427C63.4893 8.1669 63.2724 8.24321 62.9752 8.24321Z" fill="white"/>
<path d="M68.8479 15.8584C68.2936 15.8584 67.8076 15.7661 67.3899 15.5813C66.9802 15.3885 66.6388 15.1315 66.3657 14.8101C66.1006 14.4808 65.8998 14.1193 65.7632 13.7257C65.6347 13.324 65.5704 12.9184 65.5704 12.5087V12.2918C65.5704 11.8661 65.6387 11.4564 65.7753 11.0628C65.9118 10.6611 66.1167 10.2996 66.3898 9.97833C66.6629 9.65701 67.0003 9.40397 67.402 9.21921C67.8116 9.02642 68.2896 8.93003 68.8358 8.93003C69.3901 8.93003 69.8841 9.03446 70.3179 9.24331C70.7597 9.45217 71.1132 9.74939 71.3783 10.135C71.6433 10.5125 71.792 10.9543 71.8241 11.4604H70.4625C70.4143 11.0989 70.2496 10.7937 69.9685 10.5446C69.6954 10.2956 69.3178 10.1711 68.8358 10.1711C68.4181 10.1711 68.0727 10.2675 67.7996 10.4603C67.5265 10.6531 67.3216 10.9182 67.1851 11.2556C67.0485 11.5849 66.9802 11.9665 66.9802 12.4003C66.9802 12.818 67.0445 13.1955 67.173 13.5329C67.3096 13.8703 67.5144 14.1354 67.7875 14.3282C68.0687 14.521 68.4221 14.6173 68.8479 14.6173C69.1772 14.6173 69.4584 14.5611 69.6913 14.4487C69.9323 14.3282 70.1251 14.1715 70.2697 13.9787C70.4143 13.7779 70.4987 13.549 70.5228 13.2919H71.8964C71.8723 13.8141 71.7237 14.2679 71.4506 14.6535C71.1774 15.031 70.816 15.3283 70.3661 15.5452C69.9163 15.754 69.4102 15.8584 68.8479 15.8584Z" fill="white"/>
<path d="M77.2752 15.6416V13.7016H77.0463V11.5086C77.0463 11.107 76.9419 10.8017 76.733 10.5928C76.5241 10.384 76.2149 10.2796 75.8052 10.2796C75.5803 10.2796 75.3312 10.2836 75.0581 10.2916C74.785 10.2996 74.5159 10.3117 74.2508 10.3278C73.9938 10.3358 73.7648 10.3478 73.564 10.3639V9.14692C73.7407 9.13085 73.9335 9.1188 74.1424 9.11077C74.3593 9.0947 74.5802 9.08265 74.8051 9.07462C75.038 9.06659 75.259 9.06257 75.4678 9.06257C76.1265 9.06257 76.6728 9.14692 77.1065 9.31561C77.5403 9.4843 77.8616 9.75341 78.0705 10.1229C78.2874 10.4844 78.3958 10.9704 78.3958 11.5809V15.6416H77.2752ZM75.1666 15.8102C74.6926 15.8102 74.2789 15.7299 73.9255 15.5693C73.572 15.4006 73.2989 15.1596 73.1061 14.8463C72.9133 14.525 72.8169 14.1434 72.8169 13.7016C72.8169 13.2357 72.9254 12.8501 73.1423 12.5449C73.3672 12.2396 73.6845 12.0107 74.0942 11.858C74.5039 11.7054 74.9939 11.6291 75.5642 11.6291H77.1909V12.5569H75.5281C75.1023 12.5569 74.777 12.6613 74.5521 12.8702C74.3271 13.071 74.2147 13.3361 74.2147 13.6654C74.2147 13.9948 74.3271 14.2599 74.5521 14.4607C74.777 14.6535 75.1023 14.7499 75.5281 14.7499C75.7771 14.7499 76.014 14.7057 76.239 14.6173C76.4639 14.521 76.6487 14.3643 76.7932 14.1474C76.9459 13.9305 77.0302 13.6253 77.0463 13.2317L77.4078 13.7016C77.3676 14.1595 77.2551 14.5451 77.0704 14.8583C76.8937 15.1636 76.6446 15.4006 76.3233 15.5693C76.01 15.7299 75.6245 15.8102 75.1666 15.8102Z" fill="white"/>
<path d="M82.6017 15.8343C81.7261 15.8343 81.0433 15.6496 80.5533 15.2801C80.0713 14.9106 79.8183 14.4005 79.7942 13.7498H81.0955C81.1116 13.9908 81.2361 14.2117 81.4691 14.4125C81.702 14.6133 82.0836 14.7137 82.6138 14.7137C83.0636 14.7137 83.4171 14.6254 83.6741 14.4487C83.9312 14.2719 84.0597 14.051 84.0597 13.7859C84.0597 13.545 83.9633 13.3562 83.7705 13.2196C83.5858 13.075 83.2684 12.9786 82.8186 12.9304L82.18 12.8702C81.5133 12.7979 80.9831 12.6011 80.5895 12.2798C80.2039 11.9584 80.0111 11.5247 80.0111 10.9784C80.0111 10.5446 80.1195 10.1792 80.3364 9.88193C80.5533 9.58471 80.8505 9.35577 81.2281 9.19512C81.6137 9.03446 82.0555 8.95413 82.5535 8.95413C83.3247 8.95413 83.9472 9.12684 84.4212 9.47225C84.8951 9.80964 85.1401 10.3077 85.1562 10.9664H83.8669C83.8508 10.7174 83.7344 10.5085 83.5175 10.3398C83.3006 10.1711 82.9793 10.0868 82.5535 10.0868C82.1519 10.0868 81.8426 10.1671 81.6257 10.3278C81.4169 10.4884 81.3124 10.6933 81.3124 10.9423C81.3124 11.1672 81.3928 11.3439 81.5534 11.4725C81.7141 11.601 81.9751 11.6853 82.3366 11.7255L82.9753 11.7857C83.7062 11.8661 84.2846 12.0709 84.7104 12.4003C85.1441 12.7216 85.361 13.1714 85.361 13.7498C85.361 14.1675 85.2446 14.533 85.0116 14.8463C84.7786 15.1596 84.4533 15.4046 84.0356 15.5813C83.6259 15.75 83.148 15.8343 82.6017 15.8343Z" fill="white"/>
<path d="M89.1442 15.8343C88.2686 15.8343 87.5858 15.6496 87.0958 15.2801C86.6138 14.9106 86.3608 14.4005 86.3367 13.7498H87.638C87.6541 13.9908 87.7786 14.2117 88.0115 14.4125C88.2445 14.6133 88.626 14.7137 89.1562 14.7137C89.6061 14.7137 89.9595 14.6254 90.2166 14.4487C90.4736 14.2719 90.6021 14.051 90.6021 13.7859C90.6021 13.545 90.5058 13.3562 90.313 13.2196C90.1282 13.075 89.8109 12.9786 89.3611 12.9304L88.7224 12.8702C88.0557 12.7979 87.5255 12.6011 87.1319 12.2798C86.7463 11.9584 86.5535 11.5247 86.5535 10.9784C86.5535 10.5446 86.662 10.1792 86.8789 9.88193C87.0958 9.58471 87.393 9.35577 87.7705 9.19512C88.1561 9.03446 88.5979 8.95413 89.096 8.95413C89.8671 8.95413 90.4897 9.12684 90.9636 9.47225C91.4376 9.80964 91.6826 10.3077 91.6986 10.9664H90.4094C90.3933 10.7174 90.2768 10.5085 90.0599 10.3398C89.843 10.1711 89.5217 10.0868 89.096 10.0868C88.6943 10.0868 88.3851 10.1671 88.1682 10.3278C87.9593 10.4884 87.8549 10.6933 87.8549 10.9423C87.8549 11.1672 87.9352 11.3439 88.0959 11.4725C88.2565 11.601 88.5176 11.6853 88.8791 11.7255L89.5177 11.7857C90.2487 11.8661 90.8271 12.0709 91.2528 12.4003C91.6866 12.7216 91.9035 13.1714 91.9035 13.7498C91.9035 14.1675 91.787 14.533 91.5541 14.8463C91.3211 15.1596 90.9958 15.4046 90.5781 15.5813C90.1684 15.75 89.6904 15.8343 89.1442 15.8343Z" fill="white"/>
<path d="M96.4939 15.8584C95.9236 15.8584 95.4215 15.7661 94.9878 15.5813C94.554 15.3885 94.1885 15.1355 93.8913 14.8222C93.594 14.5089 93.3691 14.1555 93.2165 13.7618C93.0639 13.3602 92.9876 12.9465 92.9876 12.5208V12.2798C92.9876 11.854 93.0639 11.4403 93.2165 11.0387C93.3772 10.637 93.6061 10.2796 93.9033 9.96628C94.2086 9.64496 94.5781 9.39192 95.0119 9.20716C95.4456 9.02241 95.9397 8.93003 96.4939 8.93003C97.0482 8.93003 97.5382 9.02241 97.964 9.20716C98.3977 9.39192 98.7673 9.64496 99.0725 9.96628C99.3778 10.2796 99.6067 10.637 99.7593 11.0387C99.92 11.4403 100 11.854 100 12.2798V12.5208C100 12.9465 99.924 13.3602 99.7714 13.7618C99.6187 14.1555 99.3938 14.5089 99.0966 14.8222C98.7994 15.1355 98.4339 15.3885 98.0001 15.5813C97.5663 15.7661 97.0643 15.8584 96.4939 15.8584ZM96.4939 14.6294C96.9357 14.6294 97.3133 14.533 97.6266 14.3402C97.9399 14.1394 98.1768 13.8703 98.3375 13.5329C98.5062 13.1955 98.5905 12.818 98.5905 12.4003C98.5905 11.9745 98.5062 11.5929 98.3375 11.2556C98.1688 10.9182 97.9278 10.6531 97.6145 10.4603C97.3012 10.2595 96.9277 10.1591 96.4939 10.1591C96.0602 10.1591 95.6866 10.2595 95.3733 10.4603C95.0601 10.6531 94.8191 10.9182 94.6504 11.2556C94.4817 11.5929 94.3973 11.9745 94.3973 12.4003C94.3973 12.818 94.4777 13.1955 94.6383 13.5329C94.807 13.8703 95.048 14.1394 95.3613 14.3402C95.6746 14.533 96.0521 14.6294 96.4939 14.6294Z" fill="white"/>
<path d="M54.6197 24.3914V18.6245H55.2201V24.3914H54.6197ZM55.0779 24.3914V23.8463H57.9614V24.3914H55.0779ZM55.0779 21.7292V21.192H57.6928V21.7292H55.0779ZM55.0779 19.1696V18.6245H57.8745V19.1696H55.0779Z" fill="white"/>
<path d="M58.6292 24.3914L60.8175 21.3105V21.4606L58.8346 18.6245H59.514L61.1414 20.9787H61.252L62.9031 18.6245H63.5588L61.5127 21.5001V21.35L63.6931 24.3914H63.0137L61.1967 21.8398H61.0861L59.277 24.3914H58.6292Z" fill="white"/>
<path d="M67.075 24.5257C66.5588 24.5257 66.1164 24.4362 65.7478 24.2571C65.3844 24.0728 65.0868 23.8332 64.8551 23.5382C64.6286 23.2433 64.4627 22.9247 64.3574 22.5823C64.252 22.2347 64.1994 21.8977 64.1994 21.5712V21.4211C64.1994 21.0682 64.252 20.718 64.3574 20.3704C64.468 20.0175 64.6365 19.6989 64.863 19.4145C65.0947 19.1301 65.3896 18.9036 65.7478 18.7351C66.1059 18.5613 66.5299 18.4744 67.0197 18.4744C67.5147 18.4744 67.9413 18.5613 68.2995 18.7351C68.6629 18.9089 68.9525 19.1538 69.1685 19.4698C69.3844 19.7805 69.5161 20.1492 69.5635 20.5758H68.9552C68.913 20.2334 68.8024 19.949 68.6234 19.7226C68.4443 19.4908 68.2152 19.317 67.9361 19.2012C67.6622 19.0853 67.3567 19.0274 67.0197 19.0274C66.6563 19.0274 66.335 19.0932 66.0559 19.2249C65.782 19.3513 65.5529 19.5303 65.3686 19.7621C65.1842 19.9885 65.0447 20.2519 64.9499 20.5521C64.8551 20.847 64.8077 21.163 64.8077 21.5001C64.8077 21.8213 64.8524 22.1294 64.942 22.4243C65.0368 22.7193 65.179 22.9852 65.3686 23.2222C65.5582 23.454 65.7952 23.6383 66.0796 23.7752C66.364 23.9069 66.6958 23.9727 67.075 23.9727C67.6016 23.9727 68.044 23.8411 68.4022 23.5777C68.7603 23.3091 68.9815 22.9247 69.0658 22.4243H69.6741C69.6161 22.8193 69.4792 23.1775 69.2633 23.4987C69.0473 23.8147 68.755 24.0649 68.3864 24.2492C68.023 24.4336 67.5858 24.5257 67.075 24.5257Z" fill="white"/>
<path d="M74.856 24.3914V18.6245H75.4564V24.3914H74.856ZM70.8902 24.3914V18.6245H71.4906V24.3914H70.8902ZM71.3563 21.8003V21.2631H74.9903V21.8003H71.3563Z" fill="white"/>
<path d="M76.615 24.3914L78.7401 18.6245H79.8145L82.0107 24.3914H81.3945L79.3484 19.0037L79.6723 19.1696H78.8428L79.1825 19.0037L77.2154 24.3914H76.615ZM77.7526 22.5586L77.9501 22.0136H80.6282L80.8336 22.5586H77.7526Z" fill="white"/>
<path d="M83.1722 24.3914V18.6245H84.1755L87.3355 23.8463H87.5882L87.4303 23.9727V18.6245H88.0069V24.3914H86.9958L83.8358 19.1696H83.583L83.741 19.0432V24.3914H83.1722Z" fill="white"/>
<path d="M92.327 24.5257C91.853 24.5257 91.4317 24.4467 91.063 24.2887C90.6996 24.1307 90.3941 23.9148 90.1466 23.6409C89.8991 23.3618 89.7095 23.0432 89.5778 22.685C89.4514 22.3216 89.3882 21.9398 89.3882 21.5396V21.3974C89.3882 21.0287 89.4488 20.6706 89.5699 20.323C89.6963 19.9754 89.878 19.662 90.115 19.3829C90.352 19.1037 90.6469 18.8825 90.9998 18.7193C91.3527 18.556 91.7529 18.4744 92.2006 18.4744C92.6693 18.4744 93.0854 18.5639 93.4488 18.743C93.8122 18.9168 94.1045 19.1617 94.3257 19.4777C94.5521 19.7937 94.6838 20.1597 94.7207 20.5758H94.1124C94.0702 20.2387 93.957 19.9543 93.7727 19.7226C93.5936 19.4908 93.3671 19.317 93.0933 19.2012C92.8194 19.0853 92.5219 19.0274 92.2006 19.0274C91.8635 19.0274 91.5581 19.0879 91.2842 19.2091C91.0103 19.3302 90.7786 19.5014 90.589 19.7226C90.3994 19.9438 90.2519 20.2045 90.1466 20.5047C90.0465 20.7996 89.9965 21.1235 89.9965 21.4764C89.9965 21.8503 90.0492 22.1926 90.1545 22.5033C90.2598 22.8088 90.4126 23.0721 90.6127 23.2933C90.8128 23.5145 91.0551 23.6857 91.3395 23.8068C91.6292 23.928 91.9583 23.9885 92.327 23.9885C92.7799 23.9885 93.1776 23.9016 93.5199 23.7278C93.8675 23.5488 94.1361 23.3144 94.3257 23.0247L94.0887 23.7673V22.061H94.6575V23.4987C94.4099 23.82 94.0887 24.0728 93.6937 24.2571C93.2987 24.4362 92.8431 24.5257 92.327 24.5257ZM92.1137 22.1874V21.6818H95.171V22.1874H92.1137Z" fill="white"/>
<path d="M96.3722 24.3914V18.6245H96.9726V24.3914H96.3722ZM96.8304 24.3914V23.8463H99.7139V24.3914H96.8304ZM96.8304 21.7292V21.192H99.4453V21.7292H96.8304ZM96.8304 19.1696V18.6245H99.627V19.1696H96.8304Z" fill="white"/>
<path d="M40.3881 18.84L25.9575 1.7675C25.8251 1.61115 25.7401 1.42018 25.7128 1.21713C25.6854 1.01408 25.7167 0.807436 25.8029 0.621594C25.8892 0.435752 26.0268 0.278471 26.1996 0.168329C26.3724 0.0581878 26.573 -0.000224573 26.7779 6.48841e-07H33.2783C33.6938 -0.000188647 34.1044 0.0903398 34.4814 0.265249C34.8583 0.440158 35.1925 0.695234 35.4607 1.01268L45.353 12.7335C46.0916 13.6078 46.483 14.7231 46.4528 15.8672C46.4225 17.0113 45.9727 18.1044 45.1889 18.9384L42.7018 21.5897L40.2029 24.2479L40.4022 23.9995C40.9899 23.2674 41.309 22.356 41.3065 21.4172C41.3039 20.4784 40.9798 19.5688 40.3881 18.84Z" fill="#FC69FB"/>
<path d="M40.9862 12.8131L26.5603 29.8879C26.4287 30.0447 26.3446 30.2358 26.3178 30.4387C26.2911 30.6416 26.3227 30.848 26.4091 31.0335C26.4955 31.2191 26.633 31.3762 26.8055 31.4863C26.978 31.5965 27.1784 31.6551 27.3831 31.6554H33.881C34.2969 31.6558 34.7077 31.5651 35.0847 31.3898C35.4618 31.2144 35.7958 30.9586 36.0635 30.6404L45.9581 18.9196C46.6953 18.0447 47.0858 16.9296 47.0555 15.7859C47.0253 14.6422 46.5764 13.5494 45.794 12.7146L43.3022 10.0681L40.8033 7.40747L41.0049 7.6583C41.5912 8.39036 41.9091 9.30112 41.9057 10.239C41.9023 11.1769 41.5778 12.0853 40.9862 12.8131Z" fill="#43F2FF"/>
<path d="M17.9388 4.40039H11.6377C11.3752 4.40056 11.1185 4.47748 10.8992 4.6217C10.6799 4.76592 10.5076 4.97112 10.4034 5.21205C10.2993 5.45297 10.2679 5.71909 10.3131 5.97765C10.3583 6.2362 10.4781 6.47588 10.6578 6.66719L19.4437 16.0251L24.4883 10.0709L20.0016 5.29117C19.7367 5.00979 19.4171 4.78561 19.0623 4.63242C18.7076 4.47922 18.3252 4.40026 17.9388 4.40039Z" fill="#527BFF"/>
<path d="M27.1395 18.9339C27.8781 18.0596 28.2695 16.9443 28.2392 15.8002C28.209 14.6561 27.7592 13.563 26.9754 12.729L24.4882 10.08L21.9894 7.41943L22.1886 7.67026C22.776 8.40242 23.0943 9.31394 23.0905 10.2526C23.0866 11.1912 22.7608 12.1001 22.1675 12.8274L0.254351 38.7514C0.121934 38.9078 0.0370191 39.0987 0.0096341 39.3018C-0.0177509 39.5048 0.0135344 39.7115 0.0998005 39.8973C0.186067 40.0832 0.323713 40.2404 0.496478 40.3506C0.669244 40.4607 0.869918 40.5191 1.07481 40.5189H7.57984C7.99594 40.519 8.40704 40.4282 8.78441 40.2529C9.16177 40.0776 9.49629 39.8219 9.76459 39.5039L27.1395 18.9339Z" fill="#1F5BFF"/>
</svg>
