<svg width="20" height="20" viewBox="0 0 20 20" fill="none" xmlns="http://www.w3.org/2000/svg">
<g clip-path="url(#clip0)">
<path d="M2.98398 17.6633H14.8665L14.299 15.8258C14.3832 15.8992 19.1673 20 19.1673 20V2.0625C19.1106 0.9475 18.1506 0 16.9606 0L2.98815 0.0025C1.79898 0.0025 0.833984 0.951667 0.833984 2.06667V15.6C0.833984 16.7758 1.79732 17.6633 2.98398 17.6633ZM11.774 4.73583L11.7465 4.74583L11.7565 4.73583H11.774ZM5.41482 5.79333C6.94232 4.68167 8.35815 4.735 8.35815 4.735L8.47232 4.8475C6.60315 5.29333 5.75565 6.12833 5.75565 6.12833C5.84232 6.11 9.61648 3.9325 14.1898 6.18333C14.1898 6.18333 13.3406 5.4025 11.5865 4.9025L11.7415 4.75C11.984 4.75083 13.2673 4.79583 14.6407 5.8C14.6407 5.8 16.1773 8.425 16.1773 11.65C16.1265 11.5883 15.224 13.0383 12.9015 13.0883C12.9015 13.0883 12.5082 12.6433 12.2282 12.255C13.5865 11.865 14.0948 11.085 14.0948 11.085C11.4507 12.75 9.13315 12.49 6.36065 11.365C6.33482 11.365 6.32315 11.3533 6.30982 11.34V11.335C6.29648 11.3225 6.28482 11.31 6.25898 11.31H6.20898C6.03898 11.1983 5.92565 11.1433 5.92565 11.1433C5.92565 11.1433 6.43315 11.9233 7.73732 12.3133C7.39482 12.7042 7.05565 13.1483 7.05565 13.1483C4.73398 13.0933 3.88732 11.6433 3.88732 11.6433C3.88732 8.41333 5.41482 5.79333 5.41482 5.79333Z" fill="white"/>
<path d="M11.9246 10.6425C12.5171 10.6425 12.9996 10.1425 12.9996 9.52583C12.9996 8.91333 12.5196 8.41333 11.9246 8.41333V8.41583C11.3346 8.41583 10.8513 8.91416 10.8496 9.53083C10.8496 10.1425 11.3321 10.6425 11.9246 10.6425Z" fill="white"/>
<path d="M8.075 10.6425C8.6675 10.6425 9.15 10.1425 9.15 9.52583C9.15 8.91333 8.67083 8.41333 8.07833 8.41333L8.075 8.41583C7.4825 8.41583 7 8.91416 7 9.53083C7 10.1425 7.4825 10.6425 8.075 10.6425Z" fill="white"/>
</g>
<defs>
<clipPath id="clip0">
<rect width="20" height="20" fill="white"/>
</clipPath>
</defs>
</svg>
