<svg width="143" height="119" viewBox="0 0 143 119" fill="none" xmlns="http://www.w3.org/2000/svg">
<g clip-path="url(#clip0)">
<path d="M42.8984 48.3999V112.8" stroke="#CCCCCC" stroke-width="3.3394" stroke-miterlimit="10"/>
<path d="M75.0996 16.7V81.0999" stroke="#CCCCCC" stroke-width="3.3394" stroke-miterlimit="10"/>
<path d="M81.0984 32.2H69.1984C66.5984 32.2 64.3984 34.3 64.3984 37V71C64.3984 73.5999 66.4984 75.8 69.1984 75.8H81.0984C83.6984 75.8 85.8984 73.7 85.8984 71V37C85.8984 34.3 83.6984 32.2 81.0984 32.2Z" fill="#F2F2F2"/>
<path d="M107.299 0V64.4" stroke="#CCCCCC" stroke-width="3.3394" stroke-miterlimit="10"/>
<path d="M113.3 10.3999H101.4C98.7996 10.3999 96.5996 12.4999 96.5996 15.1999V49.1999C96.5996 51.7999 98.6996 53.9999 101.4 53.9999H113.3C115.9 53.9999 118.1 51.8999 118.1 49.1999V15.1999C118.1 12.5999 115.9 10.3999 113.3 10.3999Z" fill="#F2F2F2"/>
<path d="M48.8992 53.7H36.9992C34.3992 53.7 32.1992 55.8 32.1992 58.5V92.5C32.1992 95.0999 34.2992 97.3 36.9992 97.3H48.8992C51.4992 97.3 53.6992 95.2 53.6992 92.5V58.5C53.6992 55.8 51.4992 53.7 48.8992 53.7Z" fill="#F2F2F2"/>
<path d="M96.6012 107.4H53.7012V113.4C53.7012 116 55.8012 118.2 58.5012 118.2H91.9012C94.5012 118.2 96.7012 116.1 96.7012 113.4V107.4H96.6012Z" fill="#B3B3B3"/>
<path d="M96.6012 107.4H53.7012L75.1012 85.8999L96.6012 107.4Z" fill="#CCCCCC"/>
<path d="M136.801 88.5999L11.3008 59.5999L13.0008 52.3999L138.501 81.3999L136.801 88.5999Z" fill="#CCCCCC"/>
<path d="M21.5 53.8C33.3741 53.8 43 44.1742 43 32.3C43 20.4259 33.3741 10.8 21.5 10.8C9.62588 10.8 0 20.4259 0 32.3C0 44.1742 9.62588 53.8 21.5 53.8Z" fill="#999999"/>
<path d="M21.4996 50.2001C31.3855 50.2001 39.3996 42.186 39.3996 32.3001C39.3996 22.4142 31.3855 14.4001 21.4996 14.4001C11.6137 14.4001 3.59961 22.4142 3.59961 32.3001C3.59961 42.186 11.6137 50.2001 21.4996 50.2001Z" fill="#CCCCCC"/>
<path d="M12.4996 47.8001C7.19961 44.7001 3.59961 38.9001 3.59961 32.3001C3.59961 22.4001 11.5996 14.4001 21.4996 14.4001C24.7996 14.4001 27.7996 15.3001 30.3996 16.8001C22.5996 12.3001 12.1996 15.6001 7.29961 24.2001C2.39961 32.7001 4.69961 43.3001 12.4996 47.8001Z" fill="#B3B3B3"/>
<path d="M39.3996 32.3002C39.3996 42.2002 31.3996 50.2002 21.4996 50.2002C18.1996 50.2002 15.1996 49.3002 12.5996 47.8002C20.3996 52.3002 30.7996 49.0002 35.6996 40.4002C40.5996 31.8002 38.2996 21.2002 30.4996 16.7002C35.7996 19.9002 39.3996 25.6002 39.3996 32.3002Z" fill="#B3B3B3"/>
<path d="M21.5004 31C24.8693 31 27.6004 28.269 27.6004 24.9C27.6004 21.5311 24.8693 18.8 21.5004 18.8C18.1315 18.8 15.4004 21.5311 15.4004 24.9C15.4004 28.269 18.1315 31 21.5004 31Z" fill="#999999"/>
<path d="M36.1008 40.4C33.3008 45.5 27.8008 49 21.5008 49C15.2008 49 9.70078 45.5 6.80078 40.4C10.0008 35.7 15.4008 32.7 21.4008 32.7C27.4008 32.7 32.9008 35.7 36.1008 40.4Z" fill="#999999"/>
<path d="M136 16.7H123V28.7H136V16.7Z" fill="#B3B3B3"/>
<path d="M138.8 16.7H117.5V21C117.5 21.8 118.1 22.4 118.9 22.4H137.3C138.1 22.4 138.7 21.8 138.7 21V16.7H138.8Z" fill="#CCCCCC"/>
<path d="M139.301 6.5H116.701C115.601 6.5 114.801 7.4 114.801 8.4V17.4C114.801 18.5 115.701 19.3 116.701 19.3H139.301C140.401 19.3 141.201 18.4 141.201 17.4V8.4C141.201 7.4 140.301 6.5 139.301 6.5Z" fill="#B3B3B3"/>
<path d="M127.5 26.4001L127.6 25.7001L126 25.3001C122.7 24.5001 119.4 26.0001 117.7 28.7001C117.3 29.3001 117 30.0001 116.8 30.8001L109.4 52.5001L109.8 52.6001C111.5 53.0001 112.9 52.7001 114.1 51.9001C114.9 51.4001 115.5 50.7001 116 49.9001C116.7 48.8001 117.3 47.5001 117.6 46.1001L120.2 38.5001L121.6 37.1001C124.7 34.1001 126.7 30.4001 127.5 26.4001Z" fill="#B3B3B3"/>
<path d="M116.9 73.9001V53.3H123.4V73.9001C123.4 75.6001 122 77 120.3 77H119.9C118.2 76.9 116.9 75.5001 116.9 73.9001Z" fill="#B3B3B3"/>
<path d="M142.2 53.3001V32.1001C142.2 27.9001 138.8 24.6001 134.7 24.6001H124.4C121 24.6001 118.2 26.8001 117.2 29.9001C117 30.6001 116.9 31.4001 116.9 32.1001V53.2001H142.2V53.3001Z" fill="#B3B3B3"/>
<path d="M139.1 56.2C140.8 56.2 142.2 54.7999 142.2 53.0999V46.2999C142.2 44.5999 140.8 43.2 139.1 43.2H139C137.3 43.2 135.9 44.5999 135.9 46.2999V53.0999C136.1 54.7999 137.4 56.2 139.1 56.2Z" fill="#CCCCCC"/>
<path d="M132.6 58.9H133C134.7 58.9 136.1 57.4999 136.1 55.7999V46.2999C136.1 44.5999 134.7 43.2 133 43.2H132.6C130.9 43.2 129.5 44.5999 129.5 46.2999V55.7999C129.5 57.4999 130.9 58.9 132.6 58.9Z" fill="#CCCCCC"/>
<path d="M126.1 60.7H126.5C128.2 60.7 129.6 59.2999 129.6 57.5999V46.2999C129.6 44.5999 128.2 43.2 126.5 43.2H126.1C124.4 43.2 123 44.5999 123 46.2999V57.5999C123 59.3999 124.4 60.7 126.1 60.7Z" fill="#CCCCCC"/>
<path d="M131.901 17.0999C133.001 17.0999 134.001 16.1999 134.001 14.9999C134.001 13.7999 133.101 12.8999 131.901 12.8999C130.801 12.8999 129.801 13.7999 129.801 14.9999C129.801 16.1999 130.801 17.0999 131.901 17.0999Z" fill="white"/>
</g>
<defs>
<clipPath id="clip0">
<rect width="142.2" height="118.1" fill="white"/>
</clipPath>
</defs>
</svg>
