<svg width="169" height="39" viewBox="0 0 169 39" fill="none" xmlns="http://www.w3.org/2000/svg">
<path d="M29.8617 13.93L19.192 1.30686C19.0941 1.19126 19.0313 1.05006 19.011 0.899928C18.9908 0.749796 19.0139 0.597005 19.0777 0.459596C19.1415 0.322188 19.2433 0.205897 19.371 0.12446C19.4987 0.0430231 19.6471 -0.000166045 19.7986 4.79742e-07H24.6048C24.9121 -0.000139483 25.2157 0.0667957 25.4944 0.196121C25.7731 0.325446 26.0202 0.514045 26.2185 0.748757L33.5327 9.4149C34.0788 10.0613 34.3682 10.886 34.3459 11.7319C34.3235 12.5779 33.9909 13.3861 33.4114 14.0028L31.5724 15.963L29.7248 17.9285L29.8721 17.7448C30.3067 17.2035 30.5426 16.5297 30.5407 15.8356C30.5389 15.1414 30.2992 14.4689 29.8617 13.93Z" fill="#FC69FB"/>
<path d="M30.3045 9.47388L19.6382 22.0987C19.541 22.2147 19.4788 22.3559 19.459 22.506C19.4392 22.656 19.4626 22.8086 19.5265 22.9458C19.5903 23.083 19.692 23.1991 19.8196 23.2805C19.9471 23.362 20.0953 23.4054 20.2466 23.4056H25.0511C25.3585 23.4059 25.6623 23.3388 25.9411 23.2092C26.2199 23.0795 26.4668 22.8904 26.6647 22.6551L33.9807 13.9889C34.5257 13.342 34.8144 12.5176 34.7921 11.6719C34.7697 10.8263 34.4378 10.0183 33.8594 9.40107L32.0169 7.44426L30.1693 5.47705L30.3184 5.66251C30.7519 6.20378 30.9869 6.87718 30.9844 7.57064C30.9818 8.26409 30.7419 8.93577 30.3045 9.47388Z" fill="#43F2FF"/>
<path d="M13.2635 3.25342H8.6046C8.41053 3.25354 8.22074 3.31042 8.0586 3.41705C7.89645 3.52368 7.76902 3.67541 7.69202 3.85354C7.61502 4.03168 7.59179 4.22845 7.62521 4.41961C7.65863 4.61078 7.74724 4.788 7.88011 4.92945L14.3762 11.8485L18.1062 7.4461L14.7888 3.91204C14.5929 3.704 14.3566 3.53824 14.0943 3.42497C13.832 3.3117 13.5492 3.25332 13.2635 3.25342Z" fill="#527BFF"/>
<path d="M20.0665 13.9995C20.6126 13.353 20.902 12.5284 20.8796 11.6824C20.8572 10.8365 20.5247 10.0283 19.9451 9.41161L18.1062 7.45305L16.2586 5.48584L16.4059 5.6713C16.8402 6.21264 17.0755 6.88661 17.0727 7.58061C17.0699 8.27461 16.829 8.94663 16.3903 9.4844L0.188063 28.6522C0.0901562 28.7678 0.0273713 28.909 0.00712329 29.0591C-0.0131247 29.2093 0.0100071 29.362 0.0737908 29.4994C0.137575 29.6368 0.239348 29.7531 0.367088 29.8346C0.494828 29.916 0.643202 29.9592 0.794693 29.959H5.6044C5.91206 29.9591 6.21603 29.892 6.49504 29.7623C6.77406 29.6327 7.0214 29.4437 7.21977 29.2085L20.0665 13.9995Z" fill="#1F5BFF"/>
<path d="M46.3304 12.5606V11.3715H48.5842C49.0635 11.3715 49.4599 11.2793 49.7733 11.0949C50.0868 10.9014 50.3218 10.6432 50.4785 10.3206C50.6445 9.99797 50.7274 9.63846 50.7274 9.24208C50.7274 8.83648 50.6445 8.47236 50.4785 8.14973C50.3218 7.82709 50.0868 7.57359 49.7733 7.38923C49.4599 7.20486 49.0635 7.11268 48.5842 7.11268H46.3304V5.92353H48.3353C49.1649 5.92353 49.8563 6.0572 50.4094 6.32453C50.9717 6.58263 51.3957 6.95136 51.6815 7.43071C51.9673 7.91005 52.1102 8.47697 52.1102 9.13146V9.3527C52.1102 9.99797 51.9673 10.5649 51.6815 11.0535C51.3957 11.5328 50.9717 11.9061 50.4094 12.1735C49.8563 12.4316 49.1649 12.5606 48.3353 12.5606H46.3304ZM45.2518 16.0728V5.92353H46.6069V16.0728H45.2518ZM54.2894 16.0728V8.68899H55.6168V16.0728H54.2894ZM53.1555 9.73986V8.68899H55.6168V9.73986H53.1555ZM54.6627 7.49984C54.3677 7.49984 54.1465 7.42149 53.999 7.26478C53.8607 7.10807 53.7916 6.90988 53.7916 6.67021C53.7916 6.43053 53.8607 6.23234 53.999 6.07563C54.1465 5.91893 54.3677 5.84057 54.6627 5.84057C54.9577 5.84057 55.1743 5.91893 55.3126 6.07563C55.4601 6.23234 55.5338 6.43053 55.5338 6.67021C55.5338 6.90988 55.4601 7.10807 55.3126 7.26478C55.1743 7.42149 54.9577 7.49984 54.6627 7.49984ZM61.3498 16.3216C60.7137 16.3216 60.1606 16.211 59.6905 15.9898C59.2296 15.7686 58.8471 15.4736 58.5429 15.1048C58.2387 14.7269 58.0082 14.3121 57.8515 13.8604C57.704 13.4087 57.6303 12.957 57.6303 12.5053V12.2564C57.6303 11.7863 57.704 11.3254 57.8515 10.8737C58.0082 10.422 58.2387 10.0164 58.5429 9.6569C58.8563 9.28817 59.2434 8.99319 59.7043 8.77195C60.1653 8.55072 60.7045 8.4401 61.3221 8.4401C61.9398 8.4401 62.4928 8.55533 62.9814 8.78578C63.4792 9.01624 63.8756 9.34348 64.1706 9.76752C64.4748 10.1823 64.6453 10.6755 64.6822 11.247H63.4101C63.3455 10.7861 63.1335 10.4036 62.774 10.0994C62.4145 9.78595 61.9305 9.62924 61.3221 9.62924C60.7967 9.62924 60.3588 9.74908 60.0085 9.98875C59.6583 10.2284 59.3955 10.5557 59.2204 10.9705C59.0452 11.3853 58.9577 11.8554 58.9577 12.3809C58.9577 12.8879 59.0452 13.3534 59.2204 13.7774C59.3955 14.1922 59.6583 14.5241 60.0085 14.773C60.3681 15.0127 60.8151 15.1325 61.3498 15.1325C61.7646 15.1325 62.1241 15.0588 62.4283 14.9113C62.7325 14.7638 62.9768 14.5656 63.1612 14.3167C63.3455 14.0678 63.4561 13.7866 63.493 13.4732H64.7651C64.7375 14.054 64.5669 14.5564 64.2535 14.9804C63.9493 15.4044 63.5437 15.7363 63.0367 15.976C62.5389 16.2064 61.9766 16.3216 61.3498 16.3216ZM71.035 16.0728V13.8604H70.8138V11.3023C70.8138 10.7953 70.6801 10.4128 70.4128 10.1547C70.1547 9.89657 69.7722 9.76752 69.2652 9.76752C68.9794 9.76752 68.6844 9.77213 68.3802 9.78134C68.076 9.79056 67.7856 9.79978 67.5091 9.809C67.2325 9.81822 66.9929 9.83204 66.7901 9.85048V8.68899C66.9929 8.67055 67.2049 8.65673 67.4261 8.64751C67.6566 8.62907 67.8916 8.61985 68.1313 8.61985C68.371 8.61064 68.6014 8.60603 68.8227 8.60603C69.5786 8.60603 70.1962 8.69821 70.6755 8.88257C71.1549 9.05772 71.5098 9.34809 71.7402 9.75369C71.9707 10.1593 72.0859 10.7078 72.0859 11.3991V16.0728H71.035ZM68.6153 16.2663C68.0622 16.2663 67.5828 16.1742 67.1772 15.9898C66.7809 15.7962 66.472 15.5197 66.2508 15.1602C66.0388 14.8006 65.9328 14.3674 65.9328 13.8604C65.9328 13.335 66.048 12.8971 66.2785 12.5468C66.5181 12.1965 66.8638 11.9338 67.3155 11.7586C67.7672 11.5743 68.3111 11.4821 68.9471 11.4821H70.9521V12.4777H68.8918C68.3572 12.4777 67.947 12.6067 67.6612 12.8648C67.3754 13.1229 67.2325 13.4548 67.2325 13.8604C67.2325 14.266 67.3754 14.5932 67.6612 14.8421C67.947 15.091 68.3572 15.2155 68.8918 15.2155C69.2052 15.2155 69.5048 15.1602 69.7906 15.0495C70.0764 14.9297 70.3114 14.7361 70.4958 14.4688C70.6894 14.1922 70.7954 13.8143 70.8138 13.335L71.1733 13.8604C71.1272 14.3858 70.9982 14.8283 70.7862 15.1878C70.5834 15.5381 70.2976 15.8054 69.9289 15.9898C69.5694 16.1742 69.1315 16.2663 68.6153 16.2663ZM76.942 16.294C75.9741 16.294 75.2228 16.0866 74.6881 15.6718C74.1627 15.2569 73.8908 14.69 73.8723 13.971H75.1168C75.1352 14.2568 75.2781 14.5287 75.5454 14.7868C75.822 15.0357 76.2875 15.1602 76.942 15.1602C77.532 15.1602 77.9836 15.0449 78.2971 14.8145C78.6105 14.5748 78.7672 14.2844 78.7672 13.9434C78.7672 13.6392 78.652 13.4041 78.4215 13.2382C78.1911 13.063 77.8177 12.9478 77.3015 12.8925L76.4995 12.8095C75.7989 12.7358 75.2274 12.5284 74.7849 12.1873C74.3425 11.837 74.1212 11.3484 74.1212 10.7216C74.1212 10.2515 74.2411 9.85048 74.4807 9.51863C74.7204 9.17755 75.0523 8.91944 75.4763 8.7443C75.9003 8.55994 76.3889 8.46775 76.942 8.46775C77.7716 8.46775 78.4446 8.65212 78.9608 9.02084C79.477 9.38957 79.7443 9.93805 79.7628 10.6663H78.5183C78.5091 10.3713 78.3708 10.1224 78.1035 9.91962C77.8454 9.7076 77.4582 9.60159 76.942 9.60159C76.4258 9.60159 76.034 9.7076 75.7667 9.91962C75.4993 10.1316 75.3657 10.399 75.3657 10.7216C75.3657 10.9981 75.4579 11.2194 75.6422 11.3853C75.8358 11.5512 76.1492 11.6572 76.5825 11.7033L77.3845 11.7863C78.1772 11.8693 78.8133 12.0905 79.2926 12.45C79.772 12.8003 80.0116 13.2981 80.0116 13.9434C80.0116 14.4043 79.878 14.8145 79.6107 15.174C79.3525 15.5243 78.993 15.8008 78.5321 16.0036C78.0712 16.1972 77.5412 16.294 76.942 16.294ZM84.3552 16.294C83.3873 16.294 82.6361 16.0866 82.1014 15.6718C81.576 15.2569 81.304 14.69 81.2856 13.971H82.53C82.5485 14.2568 82.6914 14.5287 82.9587 14.7868C83.2352 15.0357 83.7008 15.1602 84.3552 15.1602C84.9452 15.1602 85.3969 15.0449 85.7103 14.8145C86.0237 14.5748 86.1804 14.2844 86.1804 13.9434C86.1804 13.6392 86.0652 13.4041 85.8348 13.2382C85.6043 13.063 85.231 12.9478 84.7148 12.8925L83.9128 12.8095C83.2122 12.7358 82.6407 12.5284 82.1982 12.1873C81.7557 11.837 81.5345 11.3484 81.5345 10.7216C81.5345 10.2515 81.6543 9.85048 81.894 9.51863C82.1337 9.17755 82.4655 8.91944 82.8896 8.7443C83.3136 8.55994 83.8022 8.46775 84.3552 8.46775C85.1849 8.46775 85.8578 8.65212 86.374 9.02084C86.8902 9.38957 87.1576 9.93805 87.176 10.6663H85.9316C85.9223 10.3713 85.7841 10.1224 85.5167 9.91962C85.2586 9.7076 84.8715 9.60159 84.3552 9.60159C83.839 9.60159 83.4473 9.7076 83.1799 9.91962C82.9126 10.1316 82.7789 10.399 82.7789 10.7216C82.7789 10.9981 82.8711 11.2194 83.0555 11.3853C83.2491 11.5512 83.5625 11.6572 83.9957 11.7033L84.7977 11.7863C85.5905 11.8693 86.2265 12.0905 86.7059 12.45C87.1852 12.8003 87.4249 13.2981 87.4249 13.9434C87.4249 14.4043 87.2912 14.8145 87.0239 15.174C86.7658 15.5243 86.4063 15.8008 85.9454 16.0036C85.4845 16.1972 84.9544 16.294 84.3552 16.294ZM92.7502 16.3216C92.105 16.3216 91.538 16.211 91.0495 15.9898C90.5609 15.7686 90.1461 15.4782 89.805 15.1187C89.4732 14.7499 89.2197 14.3397 89.0445 13.888C88.8786 13.4364 88.7956 12.9754 88.7956 12.5053V12.2564C88.7956 11.7863 88.8832 11.3254 89.0584 10.8737C89.2335 10.4128 89.4916 10.0026 89.8327 9.64307C90.1738 9.27434 90.5886 8.98397 91.0771 8.77195C91.5657 8.55072 92.1234 8.4401 92.7502 8.4401C93.3771 8.4401 93.9348 8.55072 94.4233 8.77195C94.9119 8.98397 95.3267 9.27434 95.6678 9.64307C96.0089 10.0026 96.267 10.4128 96.4421 10.8737C96.6173 11.3254 96.7048 11.7863 96.7048 12.2564V12.5053C96.7048 12.9754 96.6173 13.4364 96.4421 13.888C96.2762 14.3397 96.0227 14.7499 95.6816 15.1187C95.3498 15.4782 94.9396 15.7686 94.451 15.9898C93.9624 16.211 93.3955 16.3216 92.7502 16.3216ZM92.7502 15.1325C93.3033 15.1325 93.7735 15.0127 94.1606 14.773C94.557 14.5241 94.8566 14.1922 95.0594 13.7774C95.2714 13.3626 95.3774 12.8971 95.3774 12.3809C95.3774 11.8554 95.2714 11.3853 95.0594 10.9705C94.8474 10.5557 94.5432 10.2284 94.1468 9.98875C93.7596 9.74908 93.2941 9.62924 92.7502 9.62924C92.2156 9.62924 91.7501 9.74908 91.3537 9.98875C90.9573 10.2284 90.6531 10.5557 90.4411 10.9705C90.2291 11.3853 90.1231 11.8554 90.1231 12.3809C90.1231 12.8971 90.2245 13.3626 90.4273 13.7774C90.6393 14.1922 90.9389 14.5241 91.326 14.773C91.7224 15.0127 92.1971 15.1325 92.7502 15.1325ZM102.033 16.0728V5.97884H103.388V16.0728H102.033ZM103.111 16.0728V14.856H108.006V16.0728H103.111ZM103.111 11.5512V10.3344H107.578V11.5512H103.111ZM103.111 7.19564V5.97884H107.868V7.19564H103.111ZM109.245 16.0728L111.886 12.1873L111.845 12.4638L109.37 8.68899H110.835L112.619 11.4683H112.813L114.5 8.68899H115.868L113.532 12.367L113.573 12.1182L116.339 16.0728H114.873L112.799 13.0722H112.605L110.614 16.0728H109.245ZM120.872 16.3216C120.236 16.3216 119.683 16.211 119.213 15.9898C118.752 15.7686 118.369 15.4736 118.065 15.1048C117.761 14.7269 117.53 14.3121 117.374 13.8604C117.226 13.4087 117.152 12.957 117.152 12.5053V12.2564C117.152 11.7863 117.226 11.3254 117.374 10.8737C117.53 10.422 117.761 10.0164 118.065 9.6569C118.378 9.28817 118.766 8.99319 119.226 8.77195C119.687 8.55072 120.227 8.4401 120.844 8.4401C121.462 8.4401 122.015 8.55533 122.504 8.78578C123.001 9.01624 123.398 9.34348 123.693 9.76752C123.997 10.1823 124.167 10.6755 124.204 11.247H122.932C122.868 10.7861 122.656 10.4036 122.296 10.0994C121.937 9.78595 121.453 9.62924 120.844 9.62924C120.319 9.62924 119.881 9.74908 119.531 9.98875C119.18 10.2284 118.918 10.5557 118.742 10.9705C118.567 11.3853 118.48 11.8554 118.48 12.3809C118.48 12.8879 118.567 13.3534 118.742 13.7774C118.918 14.1922 119.18 14.5241 119.531 14.773C119.89 15.0127 120.337 15.1325 120.872 15.1325C121.287 15.1325 121.646 15.0588 121.95 14.9113C122.255 14.7638 122.499 14.5656 122.683 14.3167C122.868 14.0678 122.978 13.7866 123.015 13.4732H124.287C124.26 14.054 124.089 14.5564 123.776 14.9804C123.471 15.4044 123.066 15.7363 122.559 15.976C122.061 16.2064 121.499 16.3216 120.872 16.3216ZM126.091 16.0728V5.97884H127.418V12.0075H127.086C127.086 11.2793 127.179 10.6525 127.363 10.127C127.557 9.59237 127.852 9.18216 128.248 8.8964C128.644 8.61064 129.151 8.46775 129.769 8.46775H129.824C130.709 8.46775 131.378 8.76274 131.829 9.3527C132.281 9.93344 132.507 10.7677 132.507 11.8554V16.0728H131.179V11.5789C131.179 10.9797 131.009 10.5142 130.668 10.1823C130.336 9.85048 129.903 9.68455 129.368 9.68455C128.778 9.68455 128.303 9.88274 127.944 10.2791C127.593 10.6663 127.418 11.1779 127.418 11.814V16.0728H126.091ZM139.402 16.0728V13.8604H139.18V11.3023C139.18 10.7953 139.047 10.4128 138.779 10.1547C138.521 9.89657 138.139 9.76752 137.632 9.76752C137.346 9.76752 137.051 9.77213 136.747 9.78134C136.443 9.79056 136.152 9.79978 135.876 9.809C135.599 9.81822 135.36 9.83204 135.157 9.85048V8.68899C135.36 8.67055 135.572 8.65673 135.793 8.64751C136.023 8.62907 136.258 8.61985 136.498 8.61985C136.738 8.61064 136.968 8.60603 137.189 8.60603C137.945 8.60603 138.563 8.69821 139.042 8.88257C139.522 9.05772 139.876 9.34809 140.107 9.75369C140.337 10.1593 140.453 10.7078 140.453 11.3991V16.0728H139.402ZM136.982 16.2663C136.429 16.2663 135.95 16.1742 135.544 15.9898C135.148 15.7962 134.839 15.5197 134.617 15.1602C134.405 14.8006 134.299 14.3674 134.299 13.8604C134.299 13.335 134.415 12.8971 134.645 12.5468C134.885 12.1965 135.23 11.9338 135.682 11.7586C136.134 11.5743 136.678 11.4821 137.314 11.4821H139.319V12.4777H137.258C136.724 12.4777 136.314 12.6067 136.028 12.8648C135.742 13.1229 135.599 13.4548 135.599 13.8604C135.599 14.266 135.742 14.5932 136.028 14.8421C136.314 15.091 136.724 15.2155 137.258 15.2155C137.572 15.2155 137.872 15.1602 138.157 15.0495C138.443 14.9297 138.678 14.7361 138.862 14.4688C139.056 14.1922 139.162 13.8143 139.18 13.335L139.54 13.8604C139.494 14.3858 139.365 14.8283 139.153 15.1878C138.95 15.5381 138.664 15.8054 138.296 15.9898C137.936 16.1742 137.498 16.2663 136.982 16.2663ZM142.889 16.0728V8.68899H143.94V11.8554H143.774C143.774 11.1272 143.871 10.5142 144.064 10.0164C144.267 9.50941 144.571 9.12685 144.977 8.86874C145.382 8.60142 145.894 8.46775 146.512 8.46775H146.567C147.498 8.46775 148.185 8.75813 148.627 9.33887C149.079 9.91962 149.305 10.7585 149.305 11.8554V16.0728H147.977V11.5789C147.977 11.0074 147.816 10.5511 147.493 10.21C147.171 9.8597 146.728 9.68455 146.166 9.68455C145.585 9.68455 145.115 9.86431 144.756 10.2238C144.396 10.5833 144.216 11.0627 144.216 11.6619V16.0728H142.889ZM154.527 18.9488C154.186 18.9488 153.84 18.935 153.49 18.9073C153.148 18.8797 152.821 18.8428 152.508 18.7967V17.6767C152.84 17.7228 153.185 17.7597 153.545 17.7873C153.914 17.8242 154.259 17.8426 154.582 17.8426C155.255 17.8426 155.789 17.7505 156.186 17.5661C156.591 17.391 156.882 17.1098 157.057 16.7226C157.241 16.3447 157.334 15.8561 157.334 15.2569V13.8466L157.776 12.7957C157.748 13.5424 157.592 14.1646 157.306 14.6624C157.02 15.1509 156.647 15.5197 156.186 15.7686C155.734 16.0082 155.232 16.1281 154.679 16.1281C154.162 16.1281 153.688 16.0313 153.254 15.8377C152.83 15.6349 152.462 15.3583 152.148 15.0081C151.844 14.6578 151.604 14.2568 151.429 13.8051C151.263 13.3442 151.18 12.8602 151.18 12.3532V12.1043C151.18 11.5881 151.268 11.1088 151.443 10.6663C151.618 10.2146 151.863 9.82283 152.176 9.49097C152.489 9.15912 152.863 8.90101 153.296 8.71664C153.738 8.53228 154.222 8.4401 154.748 8.4401C155.365 8.4401 155.909 8.57376 156.379 8.84109C156.85 9.0992 157.218 9.48175 157.486 9.98875C157.762 10.4865 157.914 11.0995 157.942 11.8278L157.555 11.8416V8.68899H158.606V15.2016C158.606 16.0866 158.467 16.801 158.191 17.3449C157.924 17.898 157.49 18.3036 156.891 18.5617C156.301 18.8198 155.513 18.9488 154.527 18.9488ZM154.928 14.9113C155.37 14.9113 155.771 14.8145 156.131 14.6209C156.499 14.4273 156.79 14.1508 157.002 13.7913C157.223 13.4225 157.334 12.9847 157.334 12.4777V11.8416C157.334 11.3438 157.218 10.9244 156.988 10.5833C156.767 10.2423 156.476 9.98414 156.117 9.809C155.757 9.63385 155.365 9.54628 154.941 9.54628C154.462 9.54628 154.038 9.6569 153.669 9.87814C153.301 10.0994 153.015 10.4128 152.812 10.8184C152.609 11.2148 152.508 11.6849 152.508 12.2288C152.508 12.7726 152.609 13.2474 152.812 13.653C153.024 14.0586 153.31 14.372 153.669 14.5932C154.038 14.8053 154.457 14.9113 154.928 14.9113ZM164.203 16.3216C163.558 16.3216 163 16.211 162.53 15.9898C162.06 15.7686 161.677 15.4782 161.382 15.1187C161.087 14.7499 160.866 14.3397 160.719 13.888C160.58 13.4364 160.511 12.9754 160.511 12.5053V12.2564C160.511 11.7771 160.58 11.3116 160.719 10.8599C160.866 10.4082 161.087 10.0026 161.382 9.64307C161.677 9.27434 162.051 8.98397 162.502 8.77195C162.963 8.55072 163.502 8.4401 164.12 8.4401C164.922 8.4401 165.581 8.61524 166.097 8.96554C166.623 9.30661 167.01 9.74908 167.259 10.293C167.517 10.8368 167.646 11.4176 167.646 12.0352V12.6298H161.092V11.6342H166.678L166.374 12.1735C166.374 11.648 166.291 11.1963 166.125 10.8184C165.959 10.4312 165.71 10.1316 165.378 9.91962C165.046 9.7076 164.627 9.60159 164.12 9.60159C163.595 9.60159 163.157 9.72143 162.806 9.9611C162.465 10.2008 162.207 10.528 162.032 10.9428C161.866 11.3577 161.783 11.837 161.783 12.3809C161.783 12.9063 161.866 13.381 162.032 13.8051C162.207 14.2199 162.475 14.5518 162.834 14.8006C163.194 15.0403 163.65 15.1602 164.203 15.1602C164.784 15.1602 165.254 15.0311 165.613 14.773C165.982 14.5149 166.203 14.2153 166.277 13.8742H167.522C167.42 14.3812 167.217 14.8191 166.913 15.1878C166.609 15.5565 166.226 15.8377 165.765 16.0313C165.305 16.2249 164.784 16.3216 164.203 16.3216Z" fill="white"/>
</svg>
