<svg xmlns="http://www.w3.org/2000/svg" width="65" height="88" fill="none" xmlns:v="https://vecta.io/nano"><g filter="url(#A)"><path d="M6.89 65.445v-1.532h2.218c.467 0 .851-.088 1.153-.263.311-.185.55-.433.715-.744.165-.321.248-.681.248-1.08 0-.409-.083-.769-.248-1.08a1.76 1.76 0 0 0-.715-.744c-.302-.175-.686-.263-1.153-.263H6.89v-1.532h2.014c.885 0 1.63.146 2.233.438.613.282 1.075.686 1.386 1.211.321.516.482 1.134.482 1.854v.234c0 .71-.161 1.328-.482 1.854-.311.525-.773.934-1.386 1.226-.603.282-1.348.423-2.233.423H6.89zm-1.46 3.488V58.206h1.751v10.727H5.431z" fill="#fff"/><path d="M15.156 68.933v-7.867h1.708v7.867h-1.708zm-1.153-6.553v-1.313h2.861v1.313h-2.861zm1.708-2.408c-.35 0-.613-.092-.788-.277-.165-.185-.248-.423-.248-.715 0-.282.083-.516.248-.7.175-.195.438-.292.788-.292.36 0 .623.097.788.292.175.185.263.418.263.7 0 .292-.088.53-.263.715-.165.185-.428.277-.788.277z" fill="#fff"/><path d="M22.824 69.196c-.671 0-1.26-.112-1.766-.336-.496-.234-.91-.545-1.241-.934a4.36 4.36 0 0 1-.73-1.314 4.81 4.81 0 0 1-.234-1.474v-.263a4.51 4.51 0 0 1 .248-1.489 4 4 0 0 1 .744-1.314 3.51 3.51 0 0 1 1.226-.919c.496-.233 1.075-.35 1.737-.35.671 0 1.27.127 1.795.379.535.253.963.613 1.284 1.08.321.457.501.992.54 1.605H24.78a1.75 1.75 0 0 0-.598-1.109c-.331-.302-.788-.453-1.372-.453-.506 0-.924.117-1.255.35s-.579.555-.744.963c-.165.399-.248.861-.248 1.386 0 .506.078.963.233 1.372.165.409.413.73.744.963.341.233.769.35 1.284.35.399 0 .739-.068 1.022-.204.292-.146.525-.336.7-.569a1.66 1.66 0 0 0 .306-.832h1.664c-.029.632-.209 1.182-.54 1.649a3.42 3.42 0 0 1-1.314 1.08c-.545.253-1.158.38-1.839.38z" fill="#fff"/><path d="M33.032 68.933v-2.35h-.277v-2.656c0-.486-.126-.856-.379-1.109s-.628-.38-1.124-.38l-.905.015-.978.044-.832.044v-1.474l.701-.044.803-.044.803-.015c.798 0 1.459.102 1.985.306s.915.53 1.168.978c.263.438.394 1.027.394 1.766v4.919h-1.357zm-2.554.204c-.574 0-1.075-.097-1.503-.292-.428-.204-.759-.496-.992-.876-.233-.389-.35-.851-.35-1.387 0-.564.131-1.031.394-1.401.273-.37.657-.647 1.153-.832s1.09-.277 1.781-.277h1.97v1.124h-2.014c-.516 0-.91.126-1.182.379-.272.243-.409.564-.409.963s.136.72.409.963c.273.233.667.35 1.182.35.302 0 .589-.053.861-.16.272-.117.496-.306.671-.569.185-.263.287-.632.307-1.109l.438.569c-.049.555-.185 1.022-.409 1.401-.214.37-.516.657-.905.861-.379.195-.847.292-1.401.292z" fill="#fff"/><path d="M39.484 69.167c-1.061 0-1.888-.224-2.481-.671-.584-.448-.89-1.065-.919-1.854h1.576c.02.292.17.559.453.803s.744.365 1.386.365c.545 0 .973-.107 1.284-.321s.467-.482.467-.803c0-.292-.117-.521-.35-.686-.224-.175-.608-.292-1.153-.35l-.773-.073c-.808-.088-1.45-.326-1.927-.715-.467-.389-.701-.915-.701-1.576 0-.525.131-.968.394-1.328s.623-.637 1.08-.832c.467-.195 1.002-.292 1.605-.292.934 0 1.688.209 2.262.628.574.409.871 1.012.89 1.81h-1.562c-.02-.302-.16-.555-.423-.759s-.652-.306-1.168-.306c-.487 0-.861.097-1.124.292a.9.9 0 0 0-.38.744c0 .273.097.486.292.642s.511.258.949.306l.774.073c.885.097 1.586.345 2.102.744.525.389.788.934.788 1.635 0 .506-.141.949-.423 1.328s-.676.676-1.182.89c-.496.204-1.075.306-1.737.306z" fill="#fff"/><path d="M47.409 69.167c-1.06 0-1.888-.224-2.481-.671-.584-.448-.89-1.065-.919-1.854h1.576c.02.292.17.559.453.803s.744.365 1.386.365c.545 0 .973-.107 1.284-.321s.467-.482.467-.803c0-.292-.117-.521-.35-.686-.224-.175-.608-.292-1.153-.35l-.773-.073c-.808-.088-1.45-.326-1.927-.715-.467-.389-.7-.915-.7-1.576 0-.525.131-.968.394-1.328s.623-.637 1.08-.832c.467-.195 1.002-.292 1.605-.292.934 0 1.688.209 2.262.628.574.409.871 1.012.89 1.81h-1.562c-.019-.302-.16-.555-.423-.759s-.652-.306-1.168-.306c-.487 0-.861.097-1.124.292a.9.9 0 0 0-.379.744c0 .273.097.486.292.642s.511.258.949.306l.774.073c.885.097 1.586.345 2.102.744.525.389.788.934.788 1.635 0 .506-.141.949-.423 1.328s-.676.676-1.182.89c-.496.204-1.075.306-1.737.306z" fill="#fff"/><path d="M56.311 69.196c-.691 0-1.299-.112-1.824-.336-.525-.234-.968-.54-1.328-.919a3.9 3.9 0 0 1-.817-1.284 4.2 4.2 0 0 1-.277-1.503v-.292a4.2 4.2 0 0 1 .277-1.503c.195-.486.472-.919.832-1.299.37-.389.817-.696 1.343-.919s1.124-.336 1.795-.336 1.265.112 1.781.336c.525.224.973.53 1.343.919.37.38.647.813.832 1.299.195.486.292.988.292 1.503v.292c0 .516-.092 1.017-.277 1.503a3.9 3.9 0 0 1-.817 1.284c-.36.379-.803.686-1.328.919-.525.224-1.133.336-1.824.336zm0-1.489c.535 0 .992-.117 1.372-.35.38-.243.666-.569.861-.978.204-.409.307-.866.307-1.372 0-.516-.102-.978-.307-1.386a2.33 2.33 0 0 0-.876-.963c-.38-.243-.832-.365-1.357-.365s-.978.122-1.357.365a2.33 2.33 0 0 0-.876.963c-.204.409-.306.871-.306 1.386 0 .506.097.963.292 1.372a2.43 2.43 0 0 0 .876.978c.38.233.837.35 1.372.35z" fill="#fff"/><path d="M5.59 79.532v-6.985h.727v6.985H5.59zm.555 0v-.66h3.493v.66H6.145zm0-3.225v-.651h3.167v.651H6.145zm0-3.1v-.66h3.387v.66H6.145z" fill="#fff"/><path d="M10.447 79.532l2.651-3.732v.182l-2.402-3.435h.823l1.971 2.852h.134l2-2.852h.794l-2.478 3.483v-.182l2.641 3.684h-.823l-2.201-3.091h-.134l-2.191 3.091h-.785z" fill="#fff"/><path d="M20.677 79.694c-.625 0-1.161-.108-1.608-.325a3.18 3.18 0 0 1-1.081-.871c-.274-.357-.475-.743-.603-1.158-.128-.421-.191-.829-.191-1.225v-.182c0-.427.064-.852.191-1.273a3.54 3.54 0 0 1 .612-1.158c.281-.344.638-.619 1.072-.823.434-.211.947-.316 1.541-.316.6 0 1.116.105 1.55.316a2.61 2.61 0 0 1 1.053.89c.262.376.421.823.479 1.34h-.737c-.051-.415-.185-.759-.402-1.033a2 2 0 0 0-.833-.632c-.332-.14-.702-.211-1.11-.211-.44 0-.829.08-1.167.239-.332.153-.609.37-.832.651-.223.274-.392.593-.507.957-.115.357-.172.74-.172 1.148a3.83 3.83 0 0 0 .163 1.12c.115.357.287.679.517.967.23.281.517.504.861.67.345.159.746.239 1.206.239.638 0 1.174-.159 1.608-.478.434-.325.702-.791.804-1.397h.737a3.11 3.11 0 0 1-.498 1.301c-.262.383-.616.686-1.062.909-.44.223-.97.335-1.588.335z" fill="#fff"/><path d="M30.102 79.532v-6.985h.727v6.985h-.727zm-4.804 0v-6.985h.727v6.985h-.727zm.565-3.139v-.651h4.402v.651h-4.402z" fill="#fff"/><path d="M32.232 79.532l2.574-6.985h1.301l2.66 6.985h-.746l-2.478-6.526.392.201h-1.005l.411-.201-2.383 6.526h-.727zm1.378-2.22l.239-.66h3.244l.249.66H33.61z" fill="#fff"/><path d="M40.175 79.532v-6.985h1.215l3.828 6.325h.306l-.191.153v-6.478h.698v6.985h-1.225l-3.828-6.325h-.306l.191-.153v6.478h-.689z" fill="#fff"/><path d="M51.264 79.694c-.574 0-1.085-.096-1.531-.287-.44-.191-.81-.453-1.11-.785a3.6 3.6 0 0 1-.689-1.158c-.153-.44-.23-.903-.23-1.388v-.172a3.93 3.93 0 0 1 .22-1.301c.153-.421.373-.801.66-1.139a3.08 3.08 0 0 1 1.072-.804c.427-.198.912-.297 1.455-.297.568 0 1.072.108 1.512.325.44.21.794.507 1.062.89.274.383.434.826.478 1.33h-.737c-.051-.408-.188-.753-.412-1.033-.217-.281-.491-.491-.823-.632s-.692-.211-1.081-.211c-.408 0-.778.073-1.11.22a2.34 2.34 0 0 0-.842.622c-.23.268-.408.584-.536.947-.121.357-.182.75-.182 1.177 0 .453.064.868.191 1.244.128.37.313.689.555.957s.536.475.88.622c.351.147.749.22 1.196.22.549 0 1.03-.105 1.445-.316.421-.217.746-.501.976-.852l-.287.899v-2.067h.689v1.742a3.1 3.1 0 0 1-1.167.919c-.478.217-1.03.325-1.655.325zm-.258-2.832v-.612h3.703v.612h-3.703z" fill="#fff"/><path d="M56.164 79.532v-6.985h.727v6.985h-.727zm.555 0v-.66h3.493v.66h-3.493zm0-3.225v-.651h3.167v.651h-3.167zm0-3.1v-.66h3.387v.66h-3.387z" fill="#fff"/><path d="M52.919 22.82L35.44 2.141a1.3 1.3 0 0 1-.187-1.388A1.3 1.3 0 0 1 36.434 0h7.874a3.46 3.46 0 0 1 1.457.321 3.46 3.46 0 0 1 1.186.905l11.982 14.197a5.65 5.65 0 0 1-.199 7.516l-3.013 3.211-3.027 3.22.241-.301c.712-.887 1.099-1.991 1.095-3.128s-.396-2.239-1.112-3.122z" fill="#fc69fb"/><path d="M53.646 15.52L36.172 36.202c-.159.19-.261.421-.294.667s.006.496.111.721.271.415.48.548.452.204.7.205h7.871a3.45 3.45 0 0 0 2.644-1.23l11.985-14.197a5.66 5.66 0 0 0-.199-7.516l-3.018-3.206-3.027-3.223.244.304a4.97 4.97 0 0 1-.023 6.244z" fill="#43f2ff"/><path d="M25.729 5.33h-7.632a1.63 1.63 0 0 0-1.495.983 1.63 1.63 0 0 0 .308 1.763l10.642 11.335 6.111-7.212-5.435-5.79a3.43 3.43 0 0 0-2.499-1.079z" fill="#527bff"/><path d="M36.873 22.934a5.65 5.65 0 0 0-.199-7.516l-3.013-3.209-3.027-3.223.241.304c.711.887 1.097 1.991 1.092 3.128s-.399 2.238-1.118 3.119L4.308 46.939a1.3 1.3 0 0 0-.187 1.388 1.3 1.3 0 0 0 1.181.753h7.879a3.46 3.46 0 0 0 2.646-1.23l21.046-24.916z" fill="#1f5bff"/></g><defs><filter id="A" x="0" y="0" width="64.999" height="87.694" filterUnits="userSpaceOnUse" color-interpolation-filters="sRGB"><feFlood flood-opacity="0" result="A"/><feColorMatrix in="SourceAlpha" values="0 0 0 0 0 0 0 0 0 0 0 0 0 0 0 0 0 0 127 0"/><feOffset dy="4"/><feGaussianBlur stdDeviation="2"/><feColorMatrix values="0 0 0 0 0 0 0 0 0 0 0 0 0 0 0 0 0 0 0.25 0"/><feBlend in2="A"/><feBlend in="SourceGraphic"/></filter></defs></svg>