<svg width="116" height="129" viewBox="0 0 116 129" fill="none" xmlns="http://www.w3.org/2000/svg">
<g clip-path="url(#clip0)">
<path d="M57.5996 85.8999C69.4737 85.8999 79.0996 76.274 79.0996 64.3999C79.0996 52.5258 69.4737 42.8999 57.5996 42.8999C45.7255 42.8999 36.0996 52.5258 36.0996 64.3999C36.0996 76.274 45.7255 85.8999 57.5996 85.8999Z" fill="#CCCCCC"/>
<path d="M57.5992 82.3C67.4851 82.3 75.4992 74.2859 75.4992 64.4C75.4992 54.5141 67.4851 46.5 57.5992 46.5C47.7133 46.5 39.6992 54.5141 39.6992 64.4C39.6992 74.2859 47.7133 82.3 57.5992 82.3Z" fill="#F2F2F2"/>
<path d="M48.5992 79.9C43.2992 76.8 39.6992 71 39.6992 64.4C39.6992 54.5 47.6992 46.5 57.5992 46.5C60.8992 46.5 63.8992 47.4 66.4992 48.9C58.6992 44.4 48.2992 47.7 43.3992 56.3C38.4992 64.8 40.7992 75.4 48.5992 79.9Z" fill="#E6E6E6"/>
<path d="M75.4992 64.4001C75.4992 74.3001 67.4992 82.3001 57.5992 82.3001C54.2992 82.3001 51.2992 81.4001 48.6992 79.9001C56.4992 84.4001 66.8992 81.1001 71.7992 72.5C76.6992 63.9 74.3992 53.3 66.5992 48.8C71.8992 52 75.4992 57.8001 75.4992 64.4001Z" fill="#E6E6E6"/>
<path d="M57.5988 40.3999V57.3999L42.7988 64.3999L57.5988 40.3999Z" fill="#B3B3B3"/>
<path d="M72.3996 64.3999L57.5996 57.3999V40.3999L72.3996 64.3999Z" fill="#999999"/>
<path d="M57.5992 57.3999V73.0999L42.6992 64.4999L42.7992 64.3999L57.5992 57.3999Z" fill="#999999"/>
<path d="M72.4996 64.4999L57.5996 73.0999V57.3999L72.3996 64.3999L72.4996 64.4999Z" fill="#B3B3B3"/>
<path d="M57.5992 88.4V76.1L42.6992 67.5L57.5992 88.4Z" fill="#B3B3B3"/>
<path d="M57.5996 88.4V76.1L72.4996 67.5L57.5996 88.4Z" fill="#999999"/>
<path d="M57.6992 30.8V37" stroke="#CCCCCC" stroke-width="3.3394" stroke-miterlimit="10"/>
<path d="M57.6992 91.8V98" stroke="#CCCCCC" stroke-width="3.3394" stroke-miterlimit="10"/>
<path d="M86.8004 47.6001L81.4004 50.7001" stroke="#CCCCCC" stroke-width="3.3394" stroke-miterlimit="10"/>
<path d="M33.9996 78.1001L28.5996 81.2001" stroke="#CCCCCC" stroke-width="3.3394" stroke-miterlimit="10"/>
<path d="M86.8004 81.2001L81.4004 78.1001" stroke="#CCCCCC" stroke-width="3.3394" stroke-miterlimit="10"/>
<path d="M33.9996 50.7001L28.5996 47.6001" stroke="#CCCCCC" stroke-width="3.3394" stroke-miterlimit="10"/>
<path d="M57.7008 26.8C65.1014 26.8 71.1008 20.8006 71.1008 13.4C71.1008 5.99938 65.1014 0 57.7008 0C50.3002 0 44.3008 5.99938 44.3008 13.4C44.3008 20.8006 50.3002 26.8 57.7008 26.8Z" fill="#999999"/>
<path d="M57.7 24.6C63.8856 24.6 68.9 19.5855 68.9 13.4C68.9 7.21436 63.8856 2.19995 57.7 2.19995C51.5144 2.19995 46.5 7.21436 46.5 13.4C46.5 19.5855 51.5144 24.6 57.7 24.6Z" fill="#CCCCCC"/>
<path d="M52.1 23.1C48.8 21.2 46.5 17.5 46.5 13.4C46.5 7.19995 51.5 2.19995 57.7 2.19995C59.7 2.19995 61.6 2.69995 63.3 3.69995C58.4 0.899951 51.9 2.99995 48.9 8.29995C45.8 13.7 47.2 20.3 52.1 23.1Z" fill="#B3B3B3"/>
<path d="M68.8996 13.4C68.8996 19.6 63.8996 24.6 57.6996 24.6C55.6996 24.6 53.7996 24.1 52.0996 23.1C56.9996 25.9 63.4996 23.9 66.4996 18.5C69.5996 13.1 68.0996 6.49995 63.2996 3.69995C66.6996 5.69995 68.8996 9.29995 68.8996 13.4Z" fill="#B3B3B3"/>
<path d="M57.7008 128.8C65.1014 128.8 71.1008 122.801 71.1008 115.4C71.1008 107.999 65.1014 102 57.7008 102C50.3002 102 44.3008 107.999 44.3008 115.4C44.3008 122.801 50.3002 128.8 57.7008 128.8Z" fill="#CCCCCC"/>
<path d="M57.7 126.6C63.8856 126.6 68.9 121.586 68.9 115.4C68.9 109.214 63.8856 104.2 57.7 104.2C51.5144 104.2 46.5 109.214 46.5 115.4C46.5 121.586 51.5144 126.6 57.7 126.6Z" fill="#F2F2F2"/>
<path d="M52.1 125.1C48.8 123.2 46.5 119.5 46.5 115.4C46.5 109.2 51.5 104.2 57.7 104.2C59.7 104.2 61.6 104.7 63.3 105.7C58.4 102.9 51.9 104.9 48.9 110.3C45.8 115.6 47.2 122.3 52.1 125.1Z" fill="#E6E6E6"/>
<path d="M68.8996 115.4C68.8996 121.6 63.8996 126.6 57.6996 126.6C55.6996 126.6 53.7996 126.1 52.0996 125.1C56.9996 127.9 63.4996 125.9 66.4996 120.5C69.5996 115.1 68.0996 108.5 63.2996 105.7C66.6996 107.6 68.8996 111.2 68.8996 115.4Z" fill="#E6E6E6"/>
<path d="M57.7008 120.8C60.6831 120.8 63.1008 118.382 63.1008 115.4C63.1008 112.418 60.6831 110 57.7008 110C54.7184 110 52.3008 112.418 52.3008 115.4C52.3008 118.382 54.7184 120.8 57.7008 120.8Z" fill="#B3B3B3"/>
<path d="M101.8 52.3C109.201 52.3 115.2 46.3006 115.2 38.9C115.2 31.4994 109.201 25.5 101.8 25.5C94.3998 25.5 88.4004 31.4994 88.4004 38.9C88.4004 46.3006 94.3998 52.3 101.8 52.3Z" fill="#CCCCCC"/>
<path d="M101.8 50.0999C107.985 50.0999 113 45.0855 113 38.9C113 32.7144 107.985 27.7 101.8 27.7C95.614 27.7 90.5996 32.7144 90.5996 38.9C90.5996 45.0855 95.614 50.0999 101.8 50.0999Z" fill="#F2F2F2"/>
<path d="M90.5996 38.9C90.5996 35 92.5996 31.3 96.1996 29.2C101.6 26.1 108.4 27.9 111.5 33.3C112.5 35.1 113 37 113 38.9C113 33.3 108 28.7 101.8 28.7C95.5996 28.7 90.5996 33.3 90.5996 38.9Z" fill="#E6E6E6"/>
<path d="M107.4 48.5999C102 51.6999 95.1996 49.8999 92.0996 44.4999C91.0996 42.6999 90.5996 40.7999 90.5996 38.8999C90.5996 44.4999 95.5996 49.0999 101.8 49.0999C108 49.0999 113 44.4999 113 38.8999C113 42.7999 111 46.5999 107.4 48.5999Z" fill="#E6E6E6"/>
<path d="M101.8 44.3C104.783 44.3 107.2 41.8823 107.2 38.9C107.2 35.9177 104.783 33.5 101.8 33.5C98.8181 33.5 96.4004 35.9177 96.4004 38.9C96.4004 41.8823 98.8181 44.3 101.8 44.3Z" fill="#B3B3B3"/>
<path d="M13.4996 103.3C20.9002 103.3 26.8996 97.3006 26.8996 89.9C26.8996 82.4994 20.9002 76.5 13.4996 76.5C6.09899 76.5 0.0996094 82.4994 0.0996094 89.9C0.0996094 97.3006 6.09899 103.3 13.4996 103.3Z" fill="#999999"/>
<path d="M13.4988 101.1C19.6844 101.1 24.6988 96.0855 24.6988 89.9C24.6988 83.7144 19.6844 78.7 13.4988 78.7C7.31324 78.7 2.29883 83.7144 2.29883 89.9C2.29883 96.0855 7.31324 101.1 13.4988 101.1Z" fill="#CCCCCC"/>
<path d="M2.29883 89.9C2.29883 86 4.29883 82.3 7.89883 80.2C13.2988 77.1 20.0988 78.9 23.1988 84.3C24.1988 86.1 24.6988 88 24.6988 89.9C24.6988 84.3 19.6988 79.7 13.4988 79.7C7.29883 79.7 2.29883 84.2 2.29883 89.9Z" fill="#B3B3B3"/>
<path d="M19.0988 99.5999C13.6988 102.7 6.89883 100.9 3.79883 95.4999C2.79883 93.6999 2.29883 91.7999 2.29883 89.8999C2.29883 95.4999 7.29883 100.1 13.4988 100.1C19.6988 100.1 24.6988 95.4999 24.6988 89.8999C24.6988 93.7999 22.6988 97.4999 19.0988 99.5999Z" fill="#B3B3B3"/>
<path d="M101.701 103.2C109.101 103.2 115.101 97.2005 115.101 89.7999C115.101 82.3993 109.101 76.3999 101.701 76.3999C94.3002 76.3999 88.3008 82.3993 88.3008 89.7999C88.3008 97.2005 94.3002 103.2 101.701 103.2Z" fill="#999999"/>
<path d="M101.7 101C107.886 101 112.9 95.9854 112.9 89.7999C112.9 83.6143 107.886 78.5999 101.7 78.5999C95.5144 78.5999 90.5 83.6143 90.5 89.7999C90.5 95.9854 95.5144 101 101.7 101Z" fill="#CCCCCC"/>
<path d="M96.1016 80.0998C99.5016 78.1998 103.702 77.9998 107.302 80.0998C112.702 83.1998 114.502 89.9998 111.402 95.3998C110.402 97.1998 109.002 98.4998 107.302 99.4998C112.202 96.6998 113.602 89.9998 110.502 84.6998C107.502 79.3998 101.002 77.2998 96.1016 80.0998Z" fill="#B3B3B3"/>
<path d="M96.1012 99.4999C90.7012 96.3999 88.9012 89.5999 92.0012 84.1999C93.0012 82.3999 94.4012 81.0999 96.1012 80.0999C91.2012 82.8999 89.8012 89.5999 92.9012 94.8999C96.0012 100.3 102.501 102.3 107.301 99.4999C104.001 101.5 99.7012 101.6 96.1012 99.4999Z" fill="#B3B3B3"/>
<path d="M13.4 52.1999C20.8006 52.1999 26.8 46.2005 26.8 38.7999C26.8 31.3993 20.8006 25.3999 13.4 25.3999C5.99938 25.3999 0 31.3993 0 38.7999C0 46.2005 5.99938 52.1999 13.4 52.1999Z" fill="#CCCCCC"/>
<path d="M13.3992 49.9999C19.5848 49.9999 24.5992 44.9854 24.5992 38.7999C24.5992 32.6143 19.5848 27.5999 13.3992 27.5999C7.21363 27.5999 2.19922 32.6143 2.19922 38.7999C2.19922 44.9854 7.21363 49.9999 13.3992 49.9999Z" fill="#F2F2F2"/>
<path d="M7.80078 29.0998C11.2008 27.1998 15.4008 26.9998 19.0008 29.0998C24.4008 32.1998 26.2008 38.9998 23.1008 44.3998C22.1008 46.1998 20.7008 47.4998 19.0008 48.4998C23.9008 45.6998 25.3008 38.9998 22.2008 33.6998C19.2008 28.3998 12.7008 26.2998 7.80078 29.0998Z" fill="#E6E6E6"/>
<path d="M7.80044 48.5997C2.40044 45.4997 0.600445 38.6997 3.70044 33.2997C4.70044 31.4997 6.10044 30.1997 7.80044 29.1997C2.90044 31.9997 1.50044 38.5997 4.60044 43.9997C7.70044 49.3997 14.2004 51.3997 19.0004 48.5997C15.7004 50.4997 11.4004 50.5997 7.80044 48.5997Z" fill="#E6E6E6"/>
<path d="M13.4 44.1999C16.3823 44.1999 18.8 41.7822 18.8 38.7999C18.8 35.8176 16.3823 33.3999 13.4 33.3999C10.4177 33.3999 8 35.8176 8 38.7999C8 41.7822 10.4177 44.1999 13.4 44.1999Z" fill="#B3B3B3"/>
</g>
<defs>
<clipPath id="clip0">
<rect width="115.2" height="128.8" fill="white"/>
</clipPath>
</defs>
</svg>
