<svg width="116" height="129" viewBox="0 0 116 129" fill="none" xmlns="http://www.w3.org/2000/svg">
<g clip-path="url(#clip0)">
<path d="M57.5996 85.8999C69.4737 85.8999 79.0996 76.274 79.0996 64.3999C79.0996 52.5258 69.4737 42.8999 57.5996 42.8999C45.7255 42.8999 36.0996 52.5258 36.0996 64.3999C36.0996 76.274 45.7255 85.8999 57.5996 85.8999Z" fill="url(#paint0_linear)"/>
<path d="M57.5992 82.3C67.4851 82.3 75.4992 74.2859 75.4992 64.4C75.4992 54.5141 67.4851 46.5 57.5992 46.5C47.7133 46.5 39.6992 54.5141 39.6992 64.4C39.6992 74.2859 47.7133 82.3 57.5992 82.3Z" fill="url(#paint1_linear)"/>
<g opacity="0.1">
<path opacity="0.1" d="M48.5992 79.9C43.2992 76.8 39.6992 71 39.6992 64.4C39.6992 54.5 47.6992 46.5 57.5992 46.5C60.8992 46.5 63.8992 47.4 66.4992 48.9C58.6992 44.4 48.2992 47.7 43.3992 56.3C38.4992 64.8 40.7992 75.4 48.5992 79.9Z" fill="#0C0A31"/>
<path opacity="0.1" d="M75.4992 64.4001C75.4992 74.3001 67.4992 82.3001 57.5992 82.3001C54.2992 82.3001 51.2992 81.4001 48.6992 79.9001C56.4992 84.4001 66.8992 81.1001 71.7992 72.5C76.6992 63.9 74.3992 53.3 66.5992 48.8C71.8992 52 75.4992 57.8001 75.4992 64.4001Z" fill="#0C0A31"/>
</g>
<path d="M57.5992 40.3999V57.3999L42.6992 64.4999L57.5992 40.3999Z" fill="url(#paint2_linear)"/>
<path d="M72.4996 64.4999L57.5996 57.3999V40.3999L72.4996 64.4999Z" fill="url(#paint3_linear)"/>
<path d="M57.5992 57.3999V73.0999L42.6992 64.4999L57.5992 57.3999Z" fill="url(#paint4_linear)"/>
<path d="M72.4996 64.4999L57.5996 73.0999V57.3999L72.4996 64.4999Z" fill="url(#paint5_linear)"/>
<path d="M57.5992 88.4V76.1L42.6992 67.5L57.5992 88.4Z" fill="url(#paint6_linear)"/>
<path d="M57.5996 88.4V76.1L72.4996 67.5L57.5996 88.4Z" fill="url(#paint7_linear)"/>
<path d="M59.3996 30.8H56.0996V37H59.3996V30.8Z" fill="url(#paint8_linear)"/>
<path d="M59.3996 91.8H56.0996V98H59.3996V91.8Z" fill="url(#paint9_linear)"/>
<path d="M82.2996 52.2001L80.5996 49.3001L85.9996 46.1001L87.6996 49.0001L82.2996 52.2001Z" fill="url(#paint10_linear)"/>
<path d="M29.3988 82.7001L27.7988 79.8001L33.1988 76.6001L34.7988 79.5001L29.3988 82.7001Z" fill="url(#paint11_linear)"/>
<path d="M85.9996 82.6001L80.5996 79.5001L82.1996 76.6001L87.6996 79.8001L85.9996 82.6001Z" fill="url(#paint12_linear)"/>
<path d="M33.1992 52.1001L27.6992 49.0001L29.3992 46.1001L34.7992 49.3001L33.1992 52.1001Z" fill="url(#paint13_linear)"/>
<path d="M57.7008 26.8C65.1014 26.8 71.1008 20.8006 71.1008 13.4C71.1008 5.99938 65.1014 0 57.7008 0C50.3002 0 44.3008 5.99938 44.3008 13.4C44.3008 20.8006 50.3002 26.8 57.7008 26.8Z" fill="url(#paint14_linear)"/>
<path d="M57.7 24.6C63.8856 24.6 68.9 19.5855 68.9 13.4C68.9 7.21436 63.8856 2.19995 57.7 2.19995C51.5144 2.19995 46.5 7.21436 46.5 13.4C46.5 19.5855 51.5144 24.6 57.7 24.6Z" fill="url(#paint15_linear)"/>
<g opacity="0.1">
<path opacity="0.1" d="M52.1 23.1C48.8 21.2 46.5 17.5 46.5 13.4C46.5 7.19995 51.5 2.19995 57.7 2.19995C59.7 2.19995 61.6 2.69995 63.3 3.69995C58.4 0.899951 51.9 2.99995 48.9 8.29995C45.8 13.7 47.2 20.3 52.1 23.1Z" fill="#0C0A31"/>
<path opacity="0.1" d="M68.8996 13.4C68.8996 19.6 63.8996 24.6 57.6996 24.6C55.6996 24.6 53.7996 24.1 52.0996 23.1C56.9996 25.9 63.4996 23.9 66.4996 18.5C69.5996 13.1 68.0996 6.49995 63.2996 3.69995C66.6996 5.69995 68.8996 9.29995 68.8996 13.4Z" fill="#0C0A31"/>
</g>
<path d="M57.7008 128.8C65.1014 128.8 71.1008 122.801 71.1008 115.4C71.1008 107.999 65.1014 102 57.7008 102C50.3002 102 44.3008 107.999 44.3008 115.4C44.3008 122.801 50.3002 128.8 57.7008 128.8Z" fill="url(#paint16_linear)"/>
<path d="M57.7 126.6C63.8856 126.6 68.9 121.586 68.9 115.4C68.9 109.214 63.8856 104.2 57.7 104.2C51.5144 104.2 46.5 109.214 46.5 115.4C46.5 121.586 51.5144 126.6 57.7 126.6Z" fill="url(#paint17_linear)"/>
<g opacity="0.1">
<path opacity="0.1" d="M52.1 125.1C48.8 123.2 46.5 119.5 46.5 115.4C46.5 109.2 51.5 104.2 57.7 104.2C59.7 104.2 61.6 104.7 63.3 105.7C58.4 102.9 51.9 104.9 48.9 110.3C45.8 115.6 47.2 122.3 52.1 125.1Z" fill="#0C0A31"/>
<path opacity="0.1" d="M68.8996 115.4C68.8996 121.6 63.8996 126.6 57.6996 126.6C55.6996 126.6 53.7996 126.1 52.0996 125.1C56.9996 127.9 63.4996 125.9 66.4996 120.5C69.5996 115.1 68.0996 108.5 63.2996 105.7C66.6996 107.6 68.8996 111.2 68.8996 115.4Z" fill="#0C0A31"/>
</g>
<path d="M57.7008 120.8C60.6831 120.8 63.1008 118.382 63.1008 115.4C63.1008 112.418 60.6831 110 57.7008 110C54.7184 110 52.3008 112.418 52.3008 115.4C52.3008 118.382 54.7184 120.8 57.7008 120.8Z" fill="white"/>
<path d="M101.8 52.1999C109.201 52.1999 115.2 46.2005 115.2 38.7999C115.2 31.3993 109.201 25.3999 101.8 25.3999C94.3998 25.3999 88.4004 31.3993 88.4004 38.7999C88.4004 46.2005 94.3998 52.1999 101.8 52.1999Z" fill="url(#paint18_linear)"/>
<path d="M101.8 49.9999C107.985 49.9999 113 44.9854 113 38.7999C113 32.6143 107.985 27.5999 101.8 27.5999C95.614 27.5999 90.5996 32.6143 90.5996 38.7999C90.5996 44.9854 95.614 49.9999 101.8 49.9999Z" fill="url(#paint19_linear)"/>
<g opacity="0.1">
<path opacity="0.1" d="M96.1996 48.4999C92.8996 46.5999 90.5996 42.8999 90.5996 38.7999C90.5996 32.5999 95.5996 27.5999 101.8 27.5999C103.8 27.5999 105.7 28.0999 107.4 29.0999C102.5 26.2999 95.9996 28.2999 92.9996 33.6999C89.7996 39.0999 91.2996 45.6999 96.1996 48.4999Z" fill="#0C0A31"/>
<path opacity="0.1" d="M112.999 38.7999C112.999 44.9999 107.999 49.9999 101.799 49.9999C99.7992 49.9999 97.8992 49.4999 96.1992 48.4999C101.099 51.2999 107.599 49.2999 110.599 43.8999C113.699 38.4999 112.199 31.8999 107.399 29.0999C110.699 31.0999 112.999 34.6999 112.999 38.7999Z" fill="#0C0A31"/>
</g>
<path d="M101.8 44.3C104.783 44.3 107.2 41.8823 107.2 38.9C107.2 35.9177 104.783 33.5 101.8 33.5C98.8181 33.5 96.4004 35.9177 96.4004 38.9C96.4004 41.8823 98.8181 44.3 101.8 44.3Z" fill="url(#paint20_linear)"/>
<path d="M13.4996 103.3C20.9002 103.3 26.8996 97.3006 26.8996 89.9C26.8996 82.4994 20.9002 76.5 13.4996 76.5C6.09899 76.5 0.0996094 82.4994 0.0996094 89.9C0.0996094 97.3006 6.09899 103.3 13.4996 103.3Z" fill="url(#paint21_linear)"/>
<path d="M13.4988 101.1C19.6844 101.1 24.6988 96.0855 24.6988 89.9C24.6988 83.7144 19.6844 78.7 13.4988 78.7C7.31324 78.7 2.29883 83.7144 2.29883 89.9C2.29883 96.0855 7.31324 101.1 13.4988 101.1Z" fill="url(#paint22_linear)"/>
<g opacity="0.1">
<path opacity="0.1" d="M7.79922 99.6C4.49922 97.7 2.19922 94 2.19922 89.9C2.19922 83.7 7.19922 78.7 13.3992 78.7C15.3992 78.7 17.2992 79.2 18.9992 80.2C14.0992 77.4 7.59922 79.4 4.59922 84.8C1.49922 90.1 2.99922 96.8 7.79922 99.6Z" fill="#0C0A31"/>
<path opacity="0.1" d="M24.6984 89.9C24.6984 96.1 19.6984 101.1 13.4984 101.1C11.4984 101.1 9.59844 100.6 7.89844 99.6C12.7984 102.4 19.2984 100.4 22.2984 95C25.3984 89.6 23.8984 83 19.0984 80.2C22.3984 82.1 24.6984 85.8 24.6984 89.9Z" fill="#0C0A31"/>
</g>
<path d="M101.701 103.2C109.101 103.2 115.101 97.2005 115.101 89.7999C115.101 82.3993 109.101 76.3999 101.701 76.3999C94.3002 76.3999 88.3008 82.3993 88.3008 89.7999C88.3008 97.2005 94.3002 103.2 101.701 103.2Z" fill="url(#paint23_linear)"/>
<path d="M101.7 101C107.886 101 112.9 95.9854 112.9 89.7999C112.9 83.6143 107.886 78.5999 101.7 78.5999C95.5144 78.5999 90.5 83.6143 90.5 89.7999C90.5 95.9854 95.5144 101 101.7 101Z" fill="url(#paint24_linear)"/>
<g opacity="0.1">
<path opacity="0.1" d="M96.1 99.4999C92.8 97.5999 90.5 93.8999 90.5 89.7999C90.5 83.5999 95.5 78.5999 101.7 78.5999C103.7 78.5999 105.6 79.0999 107.3 80.0999C102.4 77.2999 95.9 79.2999 92.9 84.6999C89.8 90.0999 91.2 96.6999 96.1 99.4999Z" fill="#0C0A31"/>
<path opacity="0.1" d="M112.9 89.7999C112.9 95.9999 107.9 101 101.7 101C99.6996 101 97.7996 100.5 96.0996 99.4999C101 102.3 107.5 100.3 110.5 94.8999C113.6 89.4999 112.1 82.8999 107.3 80.0999C110.7 82.0999 112.9 85.6999 112.9 89.7999Z" fill="#0C0A31"/>
</g>
<path d="M13.4 52.1999C20.8006 52.1999 26.8 46.2005 26.8 38.7999C26.8 31.3993 20.8006 25.3999 13.4 25.3999C5.99938 25.3999 0 31.3993 0 38.7999C0 46.2005 5.99938 52.1999 13.4 52.1999Z" fill="url(#paint25_linear)"/>
<path d="M13.3992 49.9999C19.5848 49.9999 24.5992 44.9854 24.5992 38.7999C24.5992 32.6143 19.5848 27.5999 13.3992 27.5999C7.21363 27.5999 2.19922 32.6143 2.19922 38.7999C2.19922 44.9854 7.21363 49.9999 13.3992 49.9999Z" fill="url(#paint26_linear)"/>
<g opacity="0.1">
<path opacity="0.1" d="M7.79922 48.4999C4.49922 46.5999 2.19922 42.8999 2.19922 38.7999C2.19922 32.5999 7.19922 27.5999 13.3992 27.5999C15.3992 27.5999 17.2992 28.0999 18.9992 29.0999C14.0992 26.2999 7.59922 28.2999 4.59922 33.6999C1.49922 39.0999 2.89922 45.6999 7.79922 48.4999Z" fill="#0C0A31"/>
<path opacity="0.1" d="M24.5988 38.7999C24.5988 44.9999 19.5988 49.9999 13.3988 49.9999C11.3988 49.9999 9.49883 49.4999 7.79883 48.4999C12.6988 51.2999 19.1988 49.2999 22.1988 43.8999C25.2988 38.4999 23.7988 31.8999 18.9988 29.0999C22.3988 31.0999 24.5988 34.6999 24.5988 38.7999Z" fill="#0C0A31"/>
</g>
<path d="M13.4 44.1999C16.3823 44.1999 18.8 41.7822 18.8 38.7999C18.8 35.8176 16.3823 33.3999 13.4 33.3999C10.4177 33.3999 8 35.8176 8 38.7999C8 41.7822 10.4177 44.1999 13.4 44.1999Z" fill="url(#paint27_linear)"/>
</g>
<defs>
<linearGradient id="paint0_linear" x1="42.4168" y1="49.2224" x2="72.7764" y2="79.582" gradientUnits="userSpaceOnUse">
<stop stop-color="#C1FFEF"/>
<stop offset="1" stop-color="#00F1B6"/>
</linearGradient>
<linearGradient id="paint1_linear" x1="44.9169" y1="51.723" x2="70.2755" y2="77.0816" gradientUnits="userSpaceOnUse">
<stop stop-color="#527BFF"/>
<stop offset="0.0001" stop-color="#43F2FF"/>
<stop offset="1" stop-color="#527BFF"/>
</linearGradient>
<linearGradient id="paint2_linear" x1="49.4863" y1="51.7757" x2="82.5288" y2="86.43" gradientUnits="userSpaceOnUse">
<stop offset="0.00340881" stop-color="#FB94DE"/>
<stop offset="1" stop-color="#FC69FB"/>
</linearGradient>
<linearGradient id="paint3_linear" x1="51.805" y1="42.0495" x2="92.2792" y2="89.9439" gradientUnits="userSpaceOnUse">
<stop stop-color="#FC69FB"/>
<stop offset="1" stop-color="#3617E2"/>
</linearGradient>
<linearGradient id="paint4_linear" x1="47.2367" y1="56.9996" x2="74.4226" y2="94.0956" gradientUnits="userSpaceOnUse">
<stop stop-color="#FC69FB"/>
<stop offset="1" stop-color="#3617E2"/>
</linearGradient>
<linearGradient id="paint5_linear" x1="54.516" y1="55.9523" x2="83.126" y2="90.8753" gradientUnits="userSpaceOnUse">
<stop offset="0.00340881" stop-color="#FB94DE"/>
<stop offset="1" stop-color="#FC69FB"/>
</linearGradient>
<linearGradient id="paint6_linear" x1="32.1694" y1="52.4381" x2="68.0326" y2="94.4799" gradientUnits="userSpaceOnUse">
<stop stop-color="#FC69FB"/>
<stop offset="1" stop-color="#3617E2"/>
</linearGradient>
<linearGradient id="paint7_linear" x1="42.1476" y1="49.9401" x2="67.3996" y2="80.8335" gradientUnits="userSpaceOnUse">
<stop stop-color="#FC69FB"/>
<stop offset="1" stop-color="#3617E2"/>
</linearGradient>
<linearGradient id="paint8_linear" x1="56.052" y1="33.8991" x2="59.3914" y2="33.8991" gradientUnits="userSpaceOnUse">
<stop stop-color="#C1FFEF"/>
<stop offset="1" stop-color="#00F1B6"/>
</linearGradient>
<linearGradient id="paint9_linear" x1="56.052" y1="94.9055" x2="59.3914" y2="94.9055" gradientUnits="userSpaceOnUse">
<stop stop-color="#00F1B6"/>
<stop offset="1" stop-color="#C1FFEF"/>
</linearGradient>
<linearGradient id="paint10_linear" x1="83.2882" y1="47.7043" x2="84.958" y2="50.5965" gradientUnits="userSpaceOnUse">
<stop stop-color="#C1FFEF"/>
<stop offset="1" stop-color="#00F1B6"/>
</linearGradient>
<linearGradient id="paint11_linear" x1="30.4543" y1="78.2074" x2="32.1241" y2="81.0996" gradientUnits="userSpaceOnUse">
<stop stop-color="#00F1B6"/>
<stop offset="1" stop-color="#C1FFEF"/>
</linearGradient>
<linearGradient id="paint12_linear" x1="84.9507" y1="78.1941" x2="83.2809" y2="81.0862" gradientUnits="userSpaceOnUse">
<stop stop-color="#C1FFEF"/>
<stop offset="1" stop-color="#00F1B6"/>
</linearGradient>
<linearGradient id="paint13_linear" x1="32.1173" y1="47.6908" x2="30.4475" y2="50.5829" gradientUnits="userSpaceOnUse">
<stop stop-color="#00F1B6"/>
<stop offset="1" stop-color="#C1FFEF"/>
</linearGradient>
<linearGradient id="paint14_linear" x1="48.2168" y1="3.9298" x2="67.1915" y2="22.9045" gradientUnits="userSpaceOnUse">
<stop stop-color="#527BFF"/>
<stop offset="0.0001" stop-color="#43F2FF"/>
<stop offset="1" stop-color="#527BFF"/>
</linearGradient>
<linearGradient id="paint15_linear" x1="49.7788" y1="5.49255" x2="65.6279" y2="21.3417" gradientUnits="userSpaceOnUse">
<stop stop-color="#C1FFEF"/>
<stop offset="1" stop-color="#1CEDF8"/>
</linearGradient>
<linearGradient id="paint16_linear" x1="48.2152" y1="105.899" x2="67.1931" y2="124.876" gradientUnits="userSpaceOnUse">
<stop stop-color="#C1FFEF"/>
<stop offset="1" stop-color="#00F1B6"/>
</linearGradient>
<linearGradient id="paint17_linear" x1="49.7774" y1="107.461" x2="65.6293" y2="123.313" gradientUnits="userSpaceOnUse">
<stop stop-color="#527BFF"/>
<stop offset="0.0001" stop-color="#43F2FF"/>
<stop offset="1" stop-color="#527BFF"/>
</linearGradient>
<linearGradient id="paint18_linear" x1="92.286" y1="29.3568" x2="111.264" y2="48.3347" gradientUnits="userSpaceOnUse">
<stop stop-color="#C1FFEF"/>
<stop offset="1" stop-color="#00F1B6"/>
</linearGradient>
<linearGradient id="paint19_linear" x1="93.8483" y1="30.9198" x2="109.7" y2="46.7717" gradientUnits="userSpaceOnUse">
<stop stop-color="#527BFF"/>
<stop offset="0.0001" stop-color="#43F2FF"/>
<stop offset="1" stop-color="#527BFF"/>
</linearGradient>
<linearGradient id="paint20_linear" x1="96.4084" y1="38.9152" x2="107.141" y2="38.9152" gradientUnits="userSpaceOnUse">
<stop stop-color="#C1FFEF"/>
<stop offset="1" stop-color="#1CEDF8"/>
</linearGradient>
<linearGradient id="paint21_linear" x1="3.97801" y1="80.413" x2="22.9527" y2="99.3877" gradientUnits="userSpaceOnUse">
<stop stop-color="#527BFF"/>
<stop offset="0.0001" stop-color="#43F2FF"/>
<stop offset="1" stop-color="#527BFF"/>
</linearGradient>
<linearGradient id="paint22_linear" x1="5.54003" y1="81.9757" x2="21.3891" y2="97.8249" gradientUnits="userSpaceOnUse">
<stop stop-color="#C1FFEF"/>
<stop offset="1" stop-color="#1CEDF8"/>
</linearGradient>
<linearGradient id="paint23_linear" x1="92.2417" y1="80.3435" x2="111.216" y2="99.3182" gradientUnits="userSpaceOnUse">
<stop stop-color="#527BFF"/>
<stop offset="0.0001" stop-color="#43F2FF"/>
<stop offset="1" stop-color="#527BFF"/>
</linearGradient>
<linearGradient id="paint24_linear" x1="93.8037" y1="81.9063" x2="109.653" y2="97.7555" gradientUnits="userSpaceOnUse">
<stop stop-color="#C1FFEF"/>
<stop offset="1" stop-color="#1CEDF8"/>
</linearGradient>
<linearGradient id="paint25_linear" x1="3.9305" y1="29.3568" x2="22.9084" y2="48.3347" gradientUnits="userSpaceOnUse">
<stop stop-color="#C1FFEF"/>
<stop offset="1" stop-color="#00F1B6"/>
</linearGradient>
<linearGradient id="paint26_linear" x1="5.49272" y1="30.9198" x2="21.3445" y2="46.7717" gradientUnits="userSpaceOnUse">
<stop stop-color="#527BFF"/>
<stop offset="0.0001" stop-color="#43F2FF"/>
<stop offset="1" stop-color="#527BFF"/>
</linearGradient>
<linearGradient id="paint27_linear" x1="8.0526" y1="38.8457" x2="18.7863" y2="38.8457" gradientUnits="userSpaceOnUse">
<stop stop-color="#C1FFEF"/>
<stop offset="1" stop-color="#1CEDF8"/>
</linearGradient>
<clipPath id="clip0">
<rect width="115.2" height="128.8" fill="white"/>
</clipPath>
</defs>
</svg>
