<svg width="25" height="25" viewBox="0 0 25 25" fill="none" xmlns="http://www.w3.org/2000/svg">
<path fill-rule="evenodd" clip-rule="evenodd" d="M17.0229 3.5C20.3299 3.5 23.0199 6.19 23.0199 9.498V16.675C23.0199 19.982 20.3299 22.673 17.0229 22.673H8.37886C5.07186 22.673 2.38086 19.982 2.38086 16.675V9.498C2.38086 6.19 5.07186 3.5 8.37886 3.5H17.0229ZM17.0229 5H8.37886C5.89886 5 3.88086 7.018 3.88086 9.498V16.675C3.88086 19.155 5.89886 21.173 8.37886 21.173H17.0229C19.5029 21.173 21.5199 19.155 21.5199 16.675V16.395L18.222 16.3956C16.325 16.3956 14.781 14.8526 14.78 12.9566C14.78 11.0586 16.324 9.5146 18.222 9.5136L21.5199 9.513V9.498C21.5199 7.018 19.5029 5 17.0229 5ZM21.5199 11.013L18.222 11.0136C17.151 11.0146 16.28 11.8856 16.28 12.9556C16.28 14.0246 17.152 14.8956 18.222 14.8956L21.5199 14.895V11.013ZM18.6796 12.1436C19.0936 12.1436 19.4296 12.4796 19.4296 12.8936C19.4296 13.3076 19.0936 13.6436 18.6796 13.6436H18.3676C17.9536 13.6436 17.6176 13.3076 17.6176 12.8936C17.6176 12.4796 17.9536 12.1436 18.3676 12.1436H18.6796ZM13.0659 8.0381C13.4799 8.0381 13.8159 8.3741 13.8159 8.7881C13.8159 9.2021 13.4799 9.5381 13.0659 9.5381H7.66686C7.25286 9.5381 6.91686 9.2021 6.91686 8.7881C6.91686 8.3741 7.25286 8.0381 7.66686 8.0381H13.0659Z" fill="#79E9F1"/>
</svg>
