<svg width="112" height="129" viewBox="0 0 112 129" fill="none" xmlns="http://www.w3.org/2000/svg">
<g clip-path="url(#clip0)">
<path d="M96.7992 67.2H15.1992C12.9992 67.2 11.1992 65.4 11.1992 63.2V9H100.799V63.2C100.799 65.4 98.9992 67.2 96.7992 67.2Z" fill="url(#paint0_linear)"/>
<path d="M95.7992 0H16.1992C13.4992 0 11.1992 2.2 11.1992 5V9H100.799V5C100.799 2.2 98.4992 0 95.7992 0Z" fill="url(#paint1_linear)"/>
<path d="M19 6C19.8284 6 20.5 5.32843 20.5 4.5C20.5 3.67157 19.8284 3 19 3C18.1716 3 17.5 3.67157 17.5 4.5C17.5 5.32843 18.1716 6 19 6Z" fill="white"/>
<path d="M24 6C24.8284 6 25.5 5.32843 25.5 4.5C25.5 3.67157 24.8284 3 24 3C23.1716 3 22.5 3.67157 22.5 4.5C22.5 5.32843 23.1716 6 24 6Z" fill="white"/>
<path d="M29.0996 6C29.928 6 30.5996 5.32843 30.5996 4.5C30.5996 3.67157 29.928 3 29.0996 3C28.2712 3 27.5996 3.67157 27.5996 4.5C27.5996 5.32843 28.2712 6 29.0996 6Z" fill="white"/>
<path opacity="0.1" d="M100.799 11.8H11.1992V21.9H100.799V11.8Z" fill="#0C0A31"/>
<path d="M101.4 89.4001H10.5996C7.89961 89.4001 5.59961 87.2001 5.59961 84.4001V23.9001H106.4V84.4001C106.4 87.2001 104.1 89.4001 101.4 89.4001Z" fill="url(#paint2_linear)"/>
<path d="M101.4 13.8H10.5996C7.89961 13.8 5.59961 16 5.59961 18.8V23.9H106.4V18.8C106.4 16.1 104.1 13.8 101.4 13.8Z" fill="url(#paint3_linear)"/>
<path d="M14.2996 20.6C15.2385 20.6 15.9996 19.8388 15.9996 18.9C15.9996 17.9611 15.2385 17.2 14.2996 17.2C13.3607 17.2 12.5996 17.9611 12.5996 18.9C12.5996 19.8388 13.3607 20.6 14.2996 20.6Z" fill="white"/>
<path d="M19.9988 20.6C20.9377 20.6 21.6988 19.8388 21.6988 18.9C21.6988 17.9611 20.9377 17.2 19.9988 17.2C19.0599 17.2 18.2988 17.9611 18.2988 18.9C18.2988 19.8388 19.0599 20.6 19.9988 20.6Z" fill="white"/>
<path d="M25.7996 20.6C26.7385 20.6 27.4996 19.8388 27.4996 18.9C27.4996 17.9611 26.7385 17.2 25.7996 17.2C24.8607 17.2 24.0996 17.9611 24.0996 18.9C24.0996 19.8388 24.8607 20.6 25.7996 20.6Z" fill="white"/>
<path opacity="0.1" d="M106.4 25.7H5.59961V36.9H106.4V25.7Z" fill="#0C0A31"/>
<path d="M107 111.6H5C2.3 111.6 0 109.4 0 106.6V38.8999H112V106.7C112 109.4 109.7 111.6 107 111.6Z" fill="url(#paint4_linear)"/>
<path d="M107 27.7H5C2.3 27.7 0 29.9 0 32.7V38.9H112V32.7C112 29.9 109.7 27.7 107 27.7Z" fill="url(#paint5_linear)"/>
<path d="M9.70078 35.1999C10.7501 35.1999 11.6008 34.3492 11.6008 33.2999C11.6008 32.2506 10.7501 31.3999 9.70078 31.3999C8.65144 31.3999 7.80078 32.2506 7.80078 33.2999C7.80078 34.3492 8.65144 35.1999 9.70078 35.1999Z" fill="white"/>
<path d="M15.9996 35.1999C17.049 35.1999 17.8996 34.3492 17.8996 33.2999C17.8996 32.2506 17.049 31.3999 15.9996 31.3999C14.9503 31.3999 14.0996 32.2506 14.0996 33.2999C14.0996 34.3492 14.9503 35.1999 15.9996 35.1999Z" fill="white"/>
<path d="M22.4 35.1999C23.4493 35.1999 24.3 34.3492 24.3 33.2999C24.3 32.2506 23.4493 31.3999 22.4 31.3999C21.3507 31.3999 20.5 32.2506 20.5 33.2999C20.5 34.3492 21.3507 35.1999 22.4 35.1999Z" fill="white"/>
<path opacity="0.1" d="M102.7 111.6H16C21.1 92.4 38.5 78.3 59.3 78.3C80.1 78.4 97.6 92.5 102.7 111.6Z" fill="#0C0A31"/>
<path d="M55.9992 78.3999C31.2992 78.3999 11.1992 98.4999 11.1992 123.2V123.4H100.799V123.2C100.799 98.3999 80.6992 78.3999 55.9992 78.3999Z" fill="url(#paint6_linear)"/>
<path d="M56 83.6001V94.3001C48.3 94.3001 41 97.3001 35.6 102.8L28 95.2001C35.5 87.7001 45.4 83.6001 56 83.6001Z" fill="url(#paint7_linear)"/>
<path d="M95.6004 123.2H84.9004C84.9004 115.5 81.9004 108.2 76.4004 102.8L84.0004 95.2002C91.5004 102.7 95.6004 112.6 95.6004 123.2Z" fill="url(#paint8_linear)"/>
<path d="M84 95.2001L76.4 102.8C71 97.3001 63.7 94.3001 56 94.3001V83.6001C66.6 83.6001 76.5 87.7001 84 95.2001Z" fill="url(#paint9_linear)"/>
<path d="M35.5004 102.7C30.0004 108.2 27.0004 115.4 27.0004 123.1H16.4004C16.4004 112.5 20.5004 102.6 28.0004 95.1001L35.5004 102.7Z" fill="white"/>
<path d="M69.7012 91.5L52.2012 121.5L59.8012 124.8L69.7012 91.5Z" fill="white"/>
<path d="M56.0004 128.8C59.0932 128.8 61.6004 126.293 61.6004 123.2C61.6004 120.107 59.0932 117.6 56.0004 117.6C52.9076 117.6 50.4004 120.107 50.4004 123.2C50.4004 126.293 52.9076 128.8 56.0004 128.8Z" fill="url(#paint10_linear)"/>
<path d="M56.0004 125.8C57.4363 125.8 58.6004 124.636 58.6004 123.2C58.6004 121.764 57.4363 120.6 56.0004 120.6C54.5644 120.6 53.4004 121.764 53.4004 123.2C53.4004 124.636 54.5644 125.8 56.0004 125.8Z" fill="white"/>
<path d="M44.8 52.0999H9.7C8.7 52.0999 8 51.3 8 50.4C8 49.4 8.8 48.7 9.7 48.7H44.8C45.8 48.7 46.5 49.5 46.5 50.4C46.5 51.3 45.7 52.0999 44.8 52.0999Z" fill="url(#paint11_linear)"/>
<path d="M56 62.5999H9.7C8.7 62.5999 8 61.8 8 60.9C8 59.9 8.8 59.2 9.7 59.2H56C57 59.2 57.7 60 57.7 60.9C57.7 61.8 56.9 62.5999 56 62.5999Z" fill="white"/>
<path d="M33.6 73.0001H9.7C8.7 73.0001 8 72.2001 8 71.3001C8 70.3001 8.8 69.6001 9.7 69.6001H33.6C34.6 69.6001 35.3 70.4001 35.3 71.3001C35.3 72.2001 34.5 73.0001 33.6 73.0001Z" fill="white"/>
<path d="M101.8 73.1001H80.4004C79.6004 73.1001 78.9004 72.4001 78.9004 71.6001V50.1001C78.9004 49.3001 79.6004 48.6001 80.4004 48.6001H101.8C102.6 48.6001 103.3 49.3001 103.3 50.1001V71.5001C103.3 72.4001 102.7 73.1001 101.8 73.1001Z" fill="white"/>
</g>
<defs>
<linearGradient id="paint0_linear" x1="11.1999" y1="38.0616" x2="100.757" y2="38.0616" gradientUnits="userSpaceOnUse">
<stop stop-color="#C1FFEF"/>
<stop offset="1" stop-color="#00F1B6"/>
</linearGradient>
<linearGradient id="paint1_linear" x1="11.1999" y1="4.4778" x2="100.757" y2="4.4778" gradientUnits="userSpaceOnUse">
<stop stop-color="#FC69FB"/>
<stop offset="1" stop-color="#3617E2"/>
</linearGradient>
<linearGradient id="paint2_linear" x1="5.59751" y1="56.6596" x2="106.36" y2="56.6596" gradientUnits="userSpaceOnUse">
<stop stop-color="#C1FFEF"/>
<stop offset="1" stop-color="#00F1B6"/>
</linearGradient>
<linearGradient id="paint3_linear" x1="5.59751" y1="18.8737" x2="106.36" y2="18.8737" gradientUnits="userSpaceOnUse">
<stop offset="0.00340881" stop-color="#FB94DE"/>
<stop offset="1" stop-color="#FC69FB"/>
</linearGradient>
<linearGradient id="paint4_linear" x1="0" y1="75.2569" x2="111.958" y2="75.2569" gradientUnits="userSpaceOnUse">
<stop stop-color="#C1FFEF"/>
<stop offset="1" stop-color="#00F1B6"/>
</linearGradient>
<linearGradient id="paint5_linear" x1="0" y1="33.2728" x2="111.958" y2="33.2728" gradientUnits="userSpaceOnUse">
<stop stop-color="#527BFF"/>
<stop offset="0.0001" stop-color="#43F2FF"/>
<stop offset="1" stop-color="#527BFF"/>
</linearGradient>
<linearGradient id="paint6_linear" x1="11.1751" y1="100.893" x2="100.789" y2="100.893" gradientUnits="userSpaceOnUse">
<stop stop-color="#527BFF"/>
<stop offset="0.0001" stop-color="#43F2FF"/>
<stop offset="1" stop-color="#527BFF"/>
</linearGradient>
<linearGradient id="paint7_linear" x1="27.9845" y1="93.1628" x2="55.9815" y2="93.1628" gradientUnits="userSpaceOnUse">
<stop stop-color="#C1FFEF"/>
<stop offset="1" stop-color="#1CEDF8"/>
</linearGradient>
<linearGradient id="paint8_linear" x1="78.8491" y1="98.1425" x2="93.8713" y2="124.162" gradientUnits="userSpaceOnUse">
<stop stop-color="#FC69FB"/>
<stop offset="1" stop-color="#3617E2"/>
</linearGradient>
<linearGradient id="paint9_linear" x1="31.0736" y1="80.4302" x2="81.0898" y2="97.0323" gradientUnits="userSpaceOnUse">
<stop stop-color="#C1FFEF"/>
<stop offset="1" stop-color="#00F1B6"/>
</linearGradient>
<linearGradient id="paint10_linear" x1="50.356" y1="123.178" x2="61.6102" y2="123.178" gradientUnits="userSpaceOnUse">
<stop stop-color="#FC69FB"/>
<stop offset="1" stop-color="#3617E2"/>
</linearGradient>
<linearGradient id="paint11_linear" x1="7.9615" y1="50.3811" x2="46.5248" y2="50.3811" gradientUnits="userSpaceOnUse">
<stop stop-color="#527BFF"/>
<stop offset="0.0001" stop-color="#43F2FF"/>
<stop offset="1" stop-color="#527BFF"/>
</linearGradient>
<clipPath id="clip0">
<rect width="112" height="128.8" fill="white"/>
</clipPath>
</defs>
</svg>
